<svg xmlns="http://www.w3.org/2000/svg" width="20" height="25" viewBox="0 0 20 25" fill="none">
  <path d="M7.5 16.4062C7.5 16.199 7.56585 16.0003 7.68306 15.8538C7.80027 15.7073 7.95924 15.625 8.125 15.625H11.875C12.0408 15.625 12.1997 15.7073 12.3169 15.8538C12.4342 16.0003 12.5 16.199 12.5 16.4062C12.5 16.6135 12.4342 16.8122 12.3169 16.9587C12.1997 17.1052 12.0408 17.1875 11.875 17.1875H8.125C7.95924 17.1875 7.80027 17.1052 7.68306 16.9587C7.56585 16.8122 7.5 16.6135 7.5 16.4062ZM5 11.7188C5 11.5115 5.06585 11.3128 5.18306 11.1663C5.30027 11.0198 5.45924 10.9375 5.625 10.9375H14.375C14.5408 10.9375 14.6997 11.0198 14.8169 11.1663C14.9342 11.3128 15 11.5115 15 11.7188C15 11.926 14.9342 12.1247 14.8169 12.2712C14.6997 12.4177 14.5408 12.5 14.375 12.5H5.625C5.45924 12.5 5.30027 12.4177 5.18306 12.2712C5.06585 12.1247 5 11.926 5 11.7188ZM2.5 7.03125C2.5 6.82405 2.56585 6.62534 2.68306 6.47882C2.80027 6.33231 2.95924 6.25 3.125 6.25H16.875C17.0408 6.25 17.1997 6.33231 17.3169 6.47882C17.4342 6.62534 17.5 6.82405 17.5 7.03125C17.5 7.23845 17.4342 7.43716 17.3169 7.58368C17.1997 7.73019 17.0408 7.8125 16.875 7.8125H3.125C2.95924 7.8125 2.80027 7.73019 2.68306 7.58368C2.56585 7.43716 2.5 7.23845 2.5 7.03125Z" fill="black"/>
</svg>