<svg width="25" height="25" viewBox="0 0 25 25" fill="none" xmlns="http://www.w3.org/2000/svg">
<g id="bi:filter">
<path id="Vector" d="M9.375 16.4062C9.375 16.199 9.45731 16.0003 9.60382 15.8538C9.75034 15.7073 9.94905 15.625 10.1562 15.625H14.8438C15.051 15.625 15.2497 15.7073 15.3962 15.8538C15.5427 16.0003 15.625 16.199 15.625 16.4062C15.625 16.6135 15.5427 16.8122 15.3962 16.9587C15.2497 17.1052 15.051 17.1875 14.8438 17.1875H10.1562C9.94905 17.1875 9.75034 17.1052 9.60382 16.9587C9.45731 16.8122 9.375 16.6135 9.375 16.4062ZM6.25 11.7188C6.25 11.5115 6.33231 11.3128 6.47882 11.1663C6.62534 11.0198 6.82405 10.9375 7.03125 10.9375H17.9688C18.176 10.9375 18.3747 11.0198 18.5212 11.1663C18.6677 11.3128 18.75 11.5115 18.75 11.7188C18.75 11.926 18.6677 12.1247 18.5212 12.2712C18.3747 12.4177 18.176 12.5 17.9688 12.5H7.03125C6.82405 12.5 6.62534 12.4177 6.47882 12.2712C6.33231 12.1247 6.25 11.926 6.25 11.7188ZM3.125 7.03125C3.125 6.82405 3.20731 6.62534 3.35382 6.47882C3.50034 6.33231 3.69905 6.25 3.90625 6.25H21.0938C21.301 6.25 21.4997 6.33231 21.6462 6.47882C21.7927 6.62534 21.875 6.82405 21.875 7.03125C21.875 7.23845 21.7927 7.43716 21.6462 7.58368C21.4997 7.73019 21.301 7.8125 21.0938 7.8125H3.90625C3.69905 7.8125 3.50034 7.73019 3.35382 7.58368C3.20731 7.43716 3.125 7.23845 3.125 7.03125Z" fill="black"/>
</g>
</svg>
