<svg version="1.1" id="Layer_1" xmlns="http://www.w3.org/2000/svg" xmlns:xlink="http://www.w3.org/1999/xlink" x="0px" y="0px"
	 width="100%" viewBox="0 0 1920 1080" enable-background="new 0 0 1920 1080" xml:space="preserve">
<path fill="#FFFFFF" opacity="1.000000" stroke="none" 
	d="
M1295.000000,1081.000000 
	C863.333435,1081.000000 432.166809,1081.000000 1.000174,1081.000000 
	C1.000116,721.000122 1.000116,361.000275 1.000058,1.000212 
	C2.166525,1.000000 3.333050,1.000000 4.499575,1.000000 
	C643.332825,1.000000 1282.166016,1.000000 1920.999512,1.000000 
	C1920.999634,360.999664 1920.999634,720.999329 1920.999756,1080.999512 
	C1712.500000,1081.000000 1504.000000,1081.000000 1295.000000,1081.000000 
M411.967926,436.020935 
	C411.967926,436.020935 412.056122,436.046783 412.192444,435.468414 
	C411.796570,435.044250 411.400696,434.620087 410.850616,433.520844 
	C408.672760,431.226898 406.400177,429.014893 404.333099,426.625153 
	C394.120972,414.818878 381.516571,406.326813 367.385498,400.002563 
	C343.288147,389.217957 317.736755,385.266937 291.620758,385.104126 
	C242.147781,384.795685 192.671555,385.001434 143.196686,385.005463 
	C136.658981,385.006012 135.749405,385.903412 135.835602,392.610565 
	C136.139404,416.248077 136.496475,439.884918 136.834778,463.522003 
	C137.175476,487.325653 137.780151,511.129150 137.796005,534.933044 
	C137.817963,567.898743 137.454575,600.865234 137.152313,633.830444 
	C136.770599,675.458679 136.285248,717.085938 135.838303,758.713562 
	C135.825821,759.877258 135.777237,761.042969 135.684982,762.202942 
	C135.238434,767.817627 136.908020,769.661743 142.662933,769.884644 
	C143.993530,769.936218 145.323303,770.009216 146.609131,770.931335 
	C146.384354,781.441650 146.732422,781.790894 157.452209,781.791077 
	C179.611633,781.791504 201.771057,781.799011 223.930481,781.786438 
	C231.243607,781.782349 232.348984,780.651855 232.266159,773.414429 
	C231.808517,733.434021 231.347839,693.453613 230.891998,653.473206 
	C230.872070,651.725952 230.889435,649.978333 230.889435,647.977417 
	C254.694778,647.977417 277.836670,648.106873 300.976349,647.936707 
	C319.703613,647.799011 338.171661,645.404053 356.127350,639.930847 
	C391.143280,629.257446 418.253998,609.068726 432.747101,574.494995 
	C442.842010,550.413269 444.619019,525.150879 441.449158,499.455414 
	C438.919739,478.951233 432.336365,459.959137 419.460022,443.509918 
	C417.576630,441.103912 415.172913,439.105225 413.002136,436.997620 
	C413.002136,436.997620 413.081787,437.004364 413.112061,436.337311 
	C412.735352,436.201569 412.358673,436.065857 411.967926,436.020935 
M1587.006470,692.996277 
	C1587.006470,692.996277 1587.064697,692.951538 1587.037842,692.216858 
	C1578.305054,675.360168 1575.940186,657.158386 1576.035889,638.530396 
	C1576.403931,566.789795 1576.885864,495.049805 1577.347534,423.309723 
	C1577.389282,416.819946 1577.659912,410.331543 1577.694458,403.841827 
	C1577.723267,398.440643 1576.240845,396.984039 1571.008545,396.881805 
	C1569.677368,396.855774 1568.345215,396.870026 1566.935425,396.007965 
	C1566.906982,394.509918 1566.908569,393.010590 1566.844360,391.514069 
	C1566.658447,387.170929 1564.769775,384.864410 1560.026489,384.884796 
	C1535.209839,384.991394 1510.392334,384.972351 1485.575439,384.903259 
	C1480.873291,384.890167 1478.889893,387.067139 1479.038086,391.617065 
	C1479.330811,400.592926 1479.650757,409.569061 1479.817871,418.547699 
	C1480.208374,439.515656 1480.713013,460.484253 1480.812866,481.454315 
	C1480.999146,520.594177 1480.727051,559.736938 1481.052856,598.875061 
	C1481.217529,618.643494 1481.231567,638.506409 1483.153931,658.146423 
	C1486.547974,692.818298 1501.259399,722.369080 1527.279663,746.755249 
	C1528.179688,747.206299 1529.079590,747.657288 1529.977417,748.022583 
	C1529.977417,748.022583 1529.892578,748.034729 1529.374023,748.638245 
	C1542.517090,762.961243 1558.713623,772.804138 1576.927246,778.803772 
	C1623.203247,794.047119 1669.994019,794.627502 1716.332153,779.718750 
	C1754.269897,767.512756 1779.559570,741.512451 1792.412964,703.649048 
	C1798.840332,684.715210 1801.718750,665.148254 1801.880615,645.249878 
	C1802.468506,572.948425 1802.809448,500.644989 1803.272339,428.342499 
	C1803.323486,420.347076 1803.600708,412.353363 1803.697021,404.357941 
	C1803.769531,398.334991 1802.382324,396.947784 1796.511353,396.878723 
	C1795.345215,396.864990 1794.178833,396.867279 1792.935791,396.004761 
	C1792.633423,385.122528 1792.438477,384.933350 1781.511597,384.933319 
	C1761.511841,384.933228 1741.511963,384.928497 1721.512207,384.936157 
	C1714.560425,384.938812 1713.074585,386.385529 1713.179321,393.482727 
	C1713.250366,398.301300 1713.741333,403.113831 1713.808594,407.932343 
	C1714.196533,435.747192 1714.691895,463.562225 1714.815308,491.378693 
	C1715.014038,536.210693 1715.140991,581.044983 1714.859131,625.875610 
	C1714.793701,636.284973 1713.877197,646.874207 1711.758057,657.048645 
	C1706.558105,682.014771 1692.617676,699.781677 1667.358521,707.475525 
	C1653.201294,711.787781 1638.713989,712.079529 1624.312622,710.638855 
	C1610.970825,709.304138 1598.166260,705.505310 1588.289551,694.400024 
	C1587.870850,693.909302 1587.452148,693.418518 1587.006470,692.996277 
M537.024353,396.083160 
	C536.931519,384.986542 536.931519,384.985870 525.875793,384.985840 
	C503.724670,384.985809 481.573547,384.977051 459.422424,384.992706 
	C452.767212,384.997406 451.840393,385.872559 451.933197,392.487396 
	C452.194580,411.124359 452.547119,429.760040 452.834656,448.396667 
	C453.183868,471.029907 453.781891,493.663727 453.776154,516.297180 
	C453.765167,559.749084 453.494598,603.201477 453.161957,646.652466 
	C452.866333,685.275330 452.329926,723.896301 451.927887,762.518433 
	C451.859161,769.122253 452.731110,769.927429 459.425476,770.014465 
	C460.590973,770.029602 461.756378,770.054260 462.892059,770.960632 
	C462.873596,772.292358 462.837189,773.624207 462.839813,774.955872 
	C462.851196,780.746033 464.044769,782.022156 469.846497,782.023438 
	C547.266296,782.040405 624.686035,782.040527 702.105835,782.023254 
	C707.789124,782.021973 709.094116,780.679199 709.106079,774.906250 
	C709.139221,758.922852 709.140259,742.939331 709.105713,726.955933 
	C709.092957,721.047607 707.945190,719.945557 702.108337,719.887268 
	C700.776917,719.873962 699.445007,719.916626 698.124023,719.039185 
	C697.920959,707.933655 697.920959,707.937073 686.682739,707.932617 
	C640.406433,707.914429 594.130066,707.893982 547.879211,706.960815 
	C545.619568,623.189636 545.902954,539.413269 547.329529,455.633667 
	C547.624390,438.313629 547.739014,420.990509 548.038269,403.670563 
	C548.117371,399.091095 546.258362,396.760406 541.557190,396.950928 
	C540.060242,397.011597 538.559082,396.968201 537.024353,396.083160 
M1419.034302,395.468842 
	C1418.914917,384.461121 1418.612305,384.168610 1407.339233,384.168640 
	C1377.348511,384.168701 1347.357788,384.213928 1317.367310,384.130096 
	C1311.551025,384.113800 1307.373291,386.068695 1304.137573,391.216736 
	C1290.940674,412.213318 1277.445435,433.022278 1264.050781,453.894440 
	C1231.957764,503.903442 1199.815308,553.880798 1167.857788,603.976196 
	C1165.600586,607.514465 1163.457520,611.884583 1163.364380,615.916321 
	C1162.899536,636.065918 1163.096436,656.231873 1163.166626,676.391724 
	C1163.178833,679.872498 1165.125122,681.952209 1168.775757,682.073486 
	C1170.607056,682.134338 1172.440186,682.134277 1174.235229,683.018433 
	C1174.148193,694.043579 1174.276001,694.171875 1185.274536,694.173340 
	C1235.179688,694.180237 1285.084839,694.187622 1335.081055,695.104675 
	C1335.120972,698.592407 1335.193115,702.080200 1335.195312,705.567932 
	C1335.206787,724.177979 1335.187500,742.788086 1335.207886,761.398132 
	C1335.215698,768.502930 1336.610352,769.906311 1343.518555,770.005920 
	C1344.514648,770.020264 1345.510376,770.078735 1346.472534,770.958069 
	C1346.431274,781.933350 1346.501709,782.002991 1357.635376,782.003052 
	C1378.943604,782.003113 1400.251709,782.006226 1421.559937,782.001282 
	C1428.975342,781.999573 1429.999634,781.001831 1430.000977,773.774048 
	C1430.005737,749.136475 1430.002686,724.498962 1430.002808,699.861389 
	C1430.002808,698.089783 1430.002930,696.318237 1430.002930,694.168030 
	C1441.865112,694.168030 1453.150146,694.180420 1464.435059,694.163452 
	C1471.376709,694.153015 1472.309082,693.270630 1472.323242,686.451477 
	C1472.355347,670.969849 1472.350586,655.488037 1472.326416,640.006348 
	C1472.315430,632.969116 1471.275146,631.981812 1464.175903,631.999939 
	C1463.177490,632.002441 1462.179199,632.042786 1461.167480,631.154846 
	C1461.159790,630.160156 1461.149658,629.165527 1461.144775,628.170837 
	C1461.107422,620.601379 1460.509033,620.015991 1452.856567,619.998596 
	C1445.230957,619.981323 1437.605225,619.952759 1429.997314,619.005554 
	C1429.998291,547.750854 1429.999146,476.496124 1429.999878,405.241425 
	C1429.999878,404.242523 1429.975830,403.243042 1430.001709,402.244812 
	C1430.097778,398.537903 1428.120361,396.713104 1424.599365,396.442200 
	C1422.779175,396.302155 1420.939819,396.410736 1419.034302,395.468842 
M967.180908,453.022797 
	C952.787354,453.000122 938.393860,452.977448 923.855103,452.259155 
	C912.928223,431.046967 901.938660,409.866608 891.149231,388.584686 
	C889.706177,385.738159 888.033142,384.542786 884.449585,384.701935 
	C883.497620,382.949615 882.264465,381.290527 881.646362,379.427429 
	C879.814148,373.904968 876.037354,372.873840 870.560913,372.931946 
	C843.427063,373.220093 816.288452,373.063263 789.151550,373.063263 
	C787.238831,373.063263 785.326050,373.063263 783.427490,373.063263 
	C783.427490,397.142395 783.427490,420.366333 783.427490,444.123718 
	C787.236755,444.123718 790.699585,444.123718 794.135376,444.998077 
	C794.134583,447.648987 794.133789,450.299927 793.181091,453.019653 
	C764.282471,453.019653 735.383789,453.019653 706.480408,453.019653 
	C706.480408,477.115417 706.480408,500.345734 706.480408,524.107666 
	C710.307678,524.107666 713.775269,524.107666 717.217163,525.012268 
	C717.217163,528.564148 717.217163,532.116028 717.217163,536.057007 
	C721.864014,536.057007 725.932556,536.057007 730.084290,536.984375 
	C730.084290,564.182617 730.084290,591.380859 730.084290,619.115479 
	C721.847961,619.115479 714.278687,619.115479 706.492310,619.115479 
	C706.492310,642.981445 706.492310,666.303406 706.492310,690.128723 
	C710.330627,690.128723 713.796509,690.128723 717.231445,691.029907 
	C717.231445,694.616760 717.231445,698.203674 717.231445,702.084167 
	C739.568115,702.084167 761.273499,702.084167 783.014221,703.010620 
	C783.014221,725.161499 783.014221,747.312439 783.014221,770.034119 
	C787.234375,770.034119 790.684082,770.034119 794.126648,770.951477 
	C794.126648,774.525208 794.126648,778.098877 794.126648,781.649292 
	C840.159119,781.649292 885.380493,781.649292 930.830200,781.649292 
	C930.830200,758.072632 930.830200,734.725342 930.830200,711.082947 
	C927.058411,711.082947 923.593506,711.082947 920.105591,710.176270 
	C920.109131,707.466919 920.112732,704.757629 921.030151,702.079468 
	C935.358765,702.056641 949.687439,702.033813 964.360657,702.599365 
	C965.355103,704.316833 966.423645,705.996033 967.332703,707.757629 
	C977.296082,727.066345 987.309937,746.349792 997.106873,765.742737 
	C998.773438,769.041626 1000.830139,770.552917 1004.643066,770.742920 
	C1005.611511,772.674500 1006.852051,774.520325 1007.493408,776.555054 
	C1008.950134,781.176453 1012.024963,782.056885 1016.550171,781.979431 
	C1032.534058,781.705750 1048.525391,781.872925 1064.513916,781.872925 
	C1066.953491,781.872925 1069.393066,781.872925 1072.287354,781.872925 
	C1072.287354,755.021423 1072.287354,728.785583 1072.287354,702.094116 
	C1084.863281,702.094116 1096.983032,702.226501 1109.094604,701.972107 
	C1111.276001,701.926331 1113.947998,700.824402 1115.505127,699.301575 
	C1128.958984,686.144897 1142.264526,672.834473 1155.440063,659.399109 
	C1156.860718,657.950439 1157.893066,655.419861 1157.899048,653.387695 
	C1158.035522,606.754944 1158.015503,560.121643 1157.954346,513.488525 
	C1157.952393,511.946228 1157.683105,509.973175 1156.733521,508.942902 
	C1153.710693,505.663361 1150.307251,502.734772 1147.046631,498.999390 
	C1145.772095,497.494385 1144.590576,495.897675 1143.208862,494.498627 
	C1130.494751,481.625061 1117.745972,468.785675 1105.280029,455.188965 
	C1105.280029,431.903900 1105.280029,408.618866 1105.280029,385.188660 
	C1101.135498,385.188660 1097.664429,385.188660 1094.176147,384.238953 
	C1094.176147,380.653595 1094.176147,377.068237 1094.176147,373.506287 
	C1048.018921,373.506287 1002.709229,373.506287 957.430359,373.506287 
	C957.430359,397.162415 957.430359,420.379608 957.430359,444.122375 
	C961.242065,444.122375 964.704407,444.122375 968.138916,444.997223 
	C968.136902,447.649872 968.134888,450.302521 967.180908,453.022797 
z"/>
<path fill="#7BF6CC" opacity="1.000000" stroke="none" 
	d="
M968.166748,444.122375 
	C964.704407,444.122375 961.242065,444.122375 957.430359,444.122375 
	C957.430359,420.379608 957.430359,397.162415 957.430359,373.506287 
	C1002.709229,373.506287 1048.018921,373.506287 1094.176147,373.506287 
	C1094.176147,377.068237 1094.176147,380.653595 1094.211914,385.170105 
	C1094.247803,405.335815 1094.247803,424.570435 1094.247803,444.267151 
	C1082.743530,444.267151 1072.150879,444.267151 1061.377686,444.267151 
	C1061.377686,447.326416 1061.377686,449.909302 1061.377686,452.832153 
	C1063.234375,452.924744 1064.851685,453.071899 1066.469238,453.075287 
	C1076.634888,453.096680 1086.806763,452.890686 1096.962036,453.216583 
	C1099.670166,453.303467 1102.326904,454.986267 1105.007324,455.936340 
	C1117.745972,468.785675 1130.494751,481.625061 1143.208862,494.498627 
	C1144.590576,495.897675 1145.772095,497.494385 1147.024902,499.828186 
	C1146.999878,547.144104 1146.960327,593.631287 1147.067261,640.118164 
	C1147.075195,643.580505 1146.036621,645.978882 1143.591064,648.383240 
	C1130.521851,661.232239 1117.688354,674.321533 1104.565552,687.114441 
	C1102.899048,688.738953 1100.044922,689.838379 1097.688965,689.936768 
	C1089.538818,690.277466 1081.365723,690.068176 1073.201294,690.068298 
	C1069.282593,690.068298 1065.363892,690.068298 1060.893555,690.068298 
	C1060.893555,717.089050 1060.893555,743.310852 1060.893555,770.004822 
	C1041.690918,770.004822 1023.055359,770.004822 1004.419800,770.004822 
	C1000.830139,770.552917 998.773438,769.041626 997.106873,765.742737 
	C987.309937,746.349792 977.296082,727.066345 967.332703,707.757629 
	C966.423645,705.996033 965.355103,704.316833 964.158813,701.943359 
	C962.998962,699.356812 961.805115,697.504700 961.131042,695.479614 
	C959.641418,691.003845 956.737549,689.885193 952.131104,689.948425 
	C932.372681,690.219727 912.608337,690.064209 892.846191,690.064209 
	C891.085144,690.064209 889.324036,690.064209 887.407837,690.064209 
	C887.407837,693.331665 887.407837,695.906738 887.407837,698.813171 
	C889.271240,698.901489 890.884460,699.039429 892.498047,699.044067 
	C900.469299,699.067078 908.440918,699.094116 916.411743,699.029480 
	C918.604553,699.011658 920.496277,699.052063 920.116333,702.048279 
	C920.112732,704.757629 920.109131,707.466919 920.116760,711.093994 
	C920.127930,731.201538 920.127930,750.391357 920.127930,769.874634 
	C917.268311,769.874634 915.291748,769.872375 913.315247,769.875000 
	C873.588135,769.927673 833.860962,769.980957 794.133850,770.034119 
	C790.684082,770.034119 787.234375,770.034119 783.014221,770.034119 
	C783.014221,747.312439 783.014221,725.161499 783.058594,702.128967 
	C784.621277,700.515869 786.127197,699.183105 787.660034,699.151306 
	C797.107117,698.955444 806.560242,699.053101 816.132935,699.053101 
	C816.132935,695.802673 816.132935,693.095215 816.132935,690.128723 
	C782.883118,690.128723 750.072754,690.128723 717.262390,690.128723 
	C713.796509,690.128723 710.330627,690.128723 706.492310,690.128723 
	C706.492310,666.303406 706.492310,642.981445 706.492310,619.115479 
	C714.278687,619.115479 721.847961,619.115479 730.084290,619.115479 
	C730.084290,591.380859 730.084290,564.182617 730.229248,536.161865 
	C730.374146,531.739746 730.374146,528.140015 730.374146,524.107666 
	C725.767151,524.107666 721.505005,524.107666 717.242859,524.107666 
	C713.775269,524.107666 710.307678,524.107666 706.480408,524.107666 
	C706.480408,500.345734 706.480408,477.115417 706.480408,453.019653 
	C735.383789,453.019653 764.282471,453.019653 794.116455,453.013367 
	C802.108398,453.007111 809.165039,453.007111 816.279053,453.007111 
	C816.279053,449.706055 816.279053,447.125061 816.279053,444.123718 
	C808.701782,444.123718 801.432129,444.123718 794.162415,444.123718 
	C790.699585,444.123718 787.236755,444.123718 783.427490,444.123718 
	C783.427490,420.366333 783.427490,397.142395 783.427490,373.063263 
	C785.326050,373.063263 787.238831,373.063263 789.151550,373.063263 
	C816.288452,373.063263 843.427063,373.220093 870.560913,372.931946 
	C876.037354,372.873840 879.814148,373.904968 881.646362,379.427429 
	C882.264465,381.290527 883.497620,382.949615 884.730347,385.282715 
	C896.041931,407.501556 907.003418,429.175873 918.265686,450.692810 
	C918.986511,452.070038 922.034729,452.229065 924.000305,452.954773 
	C938.393860,452.977448 952.787354,453.000122 968.116333,453.016296 
	C976.080627,453.009827 983.109558,453.009827 990.593201,453.009827 
	C990.424133,449.634491 990.290527,446.965729 990.148132,444.122375 
	C982.367554,444.122375 975.267151,444.122375 968.166748,444.122375 
M899.093506,618.990723 
	C906.293030,618.990723 913.492554,618.990723 921.608643,618.990723 
	C915.723328,607.514954 910.409363,597.015808 904.956055,586.589539 
	C902.891479,582.642517 900.505493,578.863586 898.052185,574.276794 
	C894.786743,567.390808 891.521301,560.504822 888.255798,553.618896 
	C887.989380,553.777283 887.722900,553.935730 887.456421,554.094116 
	C887.456421,575.623352 887.456421,597.152588 887.456421,618.980896 
	C891.257446,618.980896 894.719116,618.980896 899.093506,618.990723 
M990.336243,535.317505 
	C990.336243,531.708252 990.336243,528.099060 990.336243,524.403076 
	C978.827515,524.403076 967.712158,524.403076 956.042786,524.403076 
	C967.396423,546.445618 978.471802,567.947815 989.547119,589.450073 
	C989.914795,589.316772 990.282410,589.183533 990.650085,589.050293 
	C990.429810,586.114746 990.209534,583.179260 990.004211,579.269226 
	C989.999878,564.861267 989.995483,550.453369 990.336243,535.317505 
M1072.709717,618.611572 
	C1077.157349,616.483948 1076.230835,612.567139 1076.209106,608.760193 
	C1076.071289,584.511108 1076.061768,560.261230 1076.337280,535.330688 
	C1077.977661,524.446716 1072.962524,522.499512 1061.452026,524.757141 
	C1061.452026,556.050537 1061.452026,587.360718 1061.452026,618.942871 
	C1065.230713,618.942871 1068.687744,618.942871 1072.709717,618.611572 
M812.955994,619.012756 
	C816.200928,619.625366 816.871033,617.976501 816.859863,615.081299 
	C816.757935,588.661926 816.757874,562.242188 816.591125,534.930359 
	C816.591125,531.468445 816.591125,528.006531 816.591125,524.434326 
	C811.145264,524.434326 806.284668,524.434326 801.426147,524.434326 
	C801.426147,556.107910 801.426147,587.365601 801.426147,618.977722 
	C805.188416,618.977722 808.649597,618.977722 812.955994,619.012756 
z"/>
<path fill="#7BF6CC" opacity="1.000000" stroke="none" 
	d="
M1588.564331,695.020081 
	C1598.166260,705.505310 1610.970825,709.304138 1624.312622,710.638855 
	C1638.713989,712.079529 1653.201294,711.787781 1667.358521,707.475525 
	C1692.617676,699.781677 1706.558105,682.014771 1711.758057,657.048645 
	C1713.877197,646.874207 1714.793701,636.284973 1714.859131,625.875610 
	C1715.140991,581.044983 1715.014038,536.210693 1714.815308,491.378693 
	C1714.691895,463.562225 1714.196533,435.747192 1713.808594,407.932343 
	C1713.741333,403.113831 1713.250366,398.301300 1713.179321,393.482727 
	C1713.074585,386.385529 1714.560425,384.938812 1721.512207,384.936157 
	C1741.511963,384.928497 1761.511841,384.933228 1781.511597,384.933319 
	C1792.438477,384.933350 1792.633423,385.122528 1792.763062,396.792938 
	C1792.191162,423.894714 1791.588989,450.207092 1791.436523,476.522125 
	C1791.150757,525.843018 1791.421875,575.169006 1790.815063,624.484863 
	C1790.627441,639.731567 1789.594360,655.186096 1786.797607,670.143372 
	C1776.510620,725.159607 1743.985107,759.623962 1689.166260,772.396790 
	C1664.955078,778.038086 1640.414795,779.079468 1615.693726,777.068420 
	C1595.157837,775.397766 1575.062134,771.643616 1556.322510,762.817932 
	C1547.212402,758.527466 1538.684204,753.001465 1529.892578,748.034729 
	C1529.892578,748.034729 1529.977417,748.022583 1529.932861,747.743408 
	C1528.968384,746.999451 1528.048706,746.534668 1527.128906,746.069885 
	C1501.259399,722.369080 1486.547974,692.818298 1483.153931,658.146423 
	C1481.231567,638.506409 1481.217529,618.643494 1481.052856,598.875061 
	C1480.727051,559.736938 1480.999146,520.594177 1480.812866,481.454315 
	C1480.713013,460.484253 1480.208374,439.515656 1479.817871,418.547699 
	C1479.650757,409.569061 1479.330811,400.592926 1479.038086,391.617065 
	C1478.889893,387.067139 1480.873291,384.890167 1485.575439,384.903259 
	C1510.392334,384.972351 1535.209839,384.991394 1560.026489,384.884796 
	C1564.769775,384.864410 1566.658447,387.170929 1566.844360,391.514069 
	C1566.908569,393.010590 1566.906982,394.509918 1566.770020,396.799438 
	C1566.200562,423.545471 1565.590210,449.498871 1565.436646,475.454956 
	C1565.148804,524.061401 1565.073608,572.669434 1565.042847,621.276978 
	C1565.037598,629.581726 1565.278320,637.929993 1566.135132,646.182495 
	C1567.718140,661.428406 1571.883667,675.900024 1581.422119,688.287415 
	C1582.873779,690.172668 1585.162842,691.412964 1587.064697,692.951538 
	C1587.064697,692.951538 1587.006470,692.996277 1586.889893,693.339783 
	C1587.370361,694.128906 1587.967407,694.574463 1588.564331,695.020081 
z"/>
<path fill="#7BF6CC" opacity="1.000000" stroke="none" 
	d="
M146.653458,770.072388 
	C145.323303,770.009216 143.993530,769.936218 142.662933,769.884644 
	C136.908020,769.661743 135.238434,767.817627 135.684982,762.202942 
	C135.777237,761.042969 135.825821,759.877258 135.838303,758.713562 
	C136.285248,717.085938 136.770599,675.458679 137.152313,633.830444 
	C137.454575,600.865234 137.817963,567.898743 137.796005,534.933044 
	C137.780151,511.129150 137.175476,487.325653 136.834778,463.522003 
	C136.496475,439.884918 136.139404,416.248077 135.835602,392.610565 
	C135.749405,385.903412 136.658981,385.006012 143.196686,385.005463 
	C192.671555,385.001434 242.147781,384.795685 291.620758,385.104126 
	C317.736755,385.266937 343.288147,389.217957 367.385498,400.002563 
	C381.516571,406.326813 394.120972,414.818878 404.333099,426.625153 
	C406.400177,429.014893 408.672760,431.226898 411.071442,434.090790 
	C411.546875,435.122742 411.801514,435.584778 412.056122,436.046783 
	C412.056122,436.046783 411.967926,436.020935 412.065460,436.240784 
	C412.469269,436.641876 412.775513,436.823120 413.081787,437.004364 
	C413.081787,437.004364 413.002136,436.997620 413.016663,437.317291 
	C416.724487,445.251343 421.116302,452.613037 423.979370,460.527771 
	C432.363678,483.705536 433.536346,507.716064 429.967255,531.907715 
	C423.906921,572.985168 402.406586,602.917786 364.491272,620.532043 
	C339.870026,631.970337 313.648560,635.709595 286.804016,635.951904 
	C266.323181,636.136841 245.839355,635.989746 225.356857,635.990356 
	C223.603912,635.990417 221.850952,635.990356 219.888016,635.990356 
	C219.888016,638.434509 219.872498,640.091064 219.890274,641.747253 
	C220.314102,681.205627 220.746994,720.664001 221.164062,760.122498 
	C221.258041,769.013184 220.454163,769.783508 211.576065,769.814880 
	C189.935150,769.891357 168.294327,769.985413 146.653458,770.072388 
M340.052856,467.977997 
	C340.052856,467.977997 340.030884,468.067108 339.710480,467.469360 
	C336.988525,464.568420 334.530060,461.351471 331.497620,458.822906 
	C320.218719,449.418213 306.695557,446.263062 292.449188,446.095734 
	C269.816376,445.829926 247.178345,445.999023 224.542526,446.009369 
	C223.433289,446.009888 222.324158,446.251770 220.772583,446.432922 
	C220.208847,489.327087 219.648132,531.991760 219.083664,574.941467 
	C223.265564,574.941467 226.739227,574.941467 231.123779,574.931030 
	C244.597946,574.954285 258.073639,575.111450 271.545807,574.958069 
	C282.165985,574.837219 292.897156,575.201538 303.374176,573.809082 
	C321.813141,571.358459 336.511658,562.097168 343.936096,544.613098 
	C354.770752,519.098022 354.051727,493.569611 340.444092,468.601868 
	C340.170746,468.463501 340.012604,468.242584 340.052856,467.977997 
z"/>
<path fill="#7BF6CC" opacity="1.000000" stroke="none" 
	d="
M1429.979614,619.929077 
	C1437.605225,619.952759 1445.230957,619.981323 1452.856567,619.998596 
	C1460.509033,620.015991 1461.107422,620.601379 1461.144775,628.170837 
	C1461.149658,629.165527 1461.159790,630.160156 1461.189697,632.075989 
	C1461.215576,646.642517 1461.229370,660.287842 1461.218994,673.933228 
	C1461.213257,681.483032 1460.556030,682.121094 1452.881836,682.127563 
	C1441.775879,682.136902 1430.669922,682.129944 1418.995361,682.129944 
	C1418.995361,684.413696 1418.995483,686.190918 1418.995483,687.968140 
	C1418.995483,712.596375 1418.999756,737.224548 1418.992188,761.852783 
	C1418.989990,768.766724 1417.776489,769.978882 1410.902100,769.993164 
	C1389.436768,770.037781 1367.971558,770.076050 1346.506226,770.116821 
	C1345.510376,770.078735 1344.514648,770.020264 1343.518555,770.005920 
	C1336.610352,769.906311 1335.215698,768.502930 1335.207886,761.398132 
	C1335.187500,742.788086 1335.206787,724.177979 1335.195312,705.567932 
	C1335.193115,702.080200 1335.120972,698.592407 1335.256226,694.295898 
	C1335.431396,689.876892 1335.431396,686.266663 1335.431396,682.161743 
	C1281.470947,682.161743 1227.871826,682.161743 1174.272583,682.161743 
	C1172.440186,682.134277 1170.607056,682.134338 1168.775757,682.073486 
	C1165.125122,681.952209 1163.178833,679.872498 1163.166626,676.391724 
	C1163.096436,656.231873 1162.899536,636.065918 1163.364380,615.916321 
	C1163.457520,611.884583 1165.600586,607.514465 1167.857788,603.976196 
	C1199.815308,553.880798 1231.957764,503.903442 1264.050781,453.894440 
	C1277.445435,433.022278 1290.940674,412.213318 1304.137573,391.216736 
	C1307.373291,386.068695 1311.551025,384.113800 1317.367310,384.130096 
	C1347.357788,384.213928 1377.348511,384.168701 1407.339233,384.168640 
	C1418.612305,384.168610 1418.914917,384.461121 1419.053223,396.378082 
	C1419.072266,471.387909 1419.072266,545.488464 1419.072266,619.929077 
	C1423.048096,619.929077 1426.513916,619.929077 1429.979614,619.929077 
M1249.067871,619.936707 
	C1277.806152,619.936707 1306.544312,619.936707 1335.445923,619.936707 
	C1335.608398,618.533569 1335.776367,617.732056 1335.783203,616.929077 
	C1336.181396,570.659119 1336.566284,524.389099 1336.968750,477.213623 
	C1336.968750,467.398468 1336.968750,457.583313 1336.968750,447.782990 
	C1301.355225,504.802887 1265.637817,561.989136 1229.443481,619.939148 
	C1236.318237,619.939148 1242.233521,619.939148 1249.067871,619.936707 
z"/>
<path fill="#7BF6CC" opacity="1.000000" stroke="none" 
	d="
M462.921814,770.074585 
	C461.756378,770.054260 460.590973,770.029602 459.425476,770.014465 
	C452.731110,769.927429 451.859161,769.122253 451.927887,762.518433 
	C452.329926,723.896301 452.866333,685.275330 453.161957,646.652466 
	C453.494598,603.201477 453.765167,559.749084 453.776154,516.297180 
	C453.781891,493.663727 453.183868,471.029907 452.834656,448.396667 
	C452.547119,429.760040 452.194580,411.124359 451.933197,392.487396 
	C451.840393,385.872559 452.767212,384.997406 459.422424,384.992706 
	C481.573547,384.977051 503.724670,384.985809 525.875793,384.985840 
	C536.931519,384.985870 536.931519,384.986542 537.001099,396.996979 
	C535.275635,501.183807 533.665527,604.456543 537.362854,707.874329 
	C541.204285,707.874329 544.529053,707.874329 547.853760,707.874390 
	C594.130066,707.893982 640.406433,707.914429 686.682739,707.932617 
	C697.920959,707.937073 697.920959,707.933655 698.109863,719.961243 
	C698.095337,734.031860 698.095886,747.180359 698.094055,760.328918 
	C698.092773,769.530762 697.611572,770.023560 688.609741,770.025635 
	C613.380432,770.042542 538.151123,770.058411 462.921814,770.074585 
z"/>
<path fill="#1F6C51" opacity="1.000000" stroke="none" 
	d="
M1529.633301,748.336487 
	C1538.684204,753.001465 1547.212402,758.527466 1556.322510,762.817932 
	C1575.062134,771.643616 1595.157837,775.397766 1615.693726,777.068420 
	C1640.414795,779.079468 1664.955078,778.038086 1689.166260,772.396790 
	C1743.985107,759.623962 1776.510620,725.159607 1786.797607,670.143372 
	C1789.594360,655.186096 1790.627441,639.731567 1790.815063,624.484863 
	C1791.421875,575.169006 1791.150757,525.843018 1791.436523,476.522125 
	C1791.588989,450.207092 1792.191162,423.894714 1792.801514,397.221649 
	C1794.178833,396.867279 1795.345215,396.864990 1796.511353,396.878723 
	C1802.382324,396.947784 1803.769531,398.334991 1803.697021,404.357941 
	C1803.600708,412.353363 1803.323486,420.347076 1803.272339,428.342499 
	C1802.809448,500.644989 1802.468506,572.948425 1801.880615,645.249878 
	C1801.718750,665.148254 1798.840332,684.715210 1792.412964,703.649048 
	C1779.559570,741.512451 1754.269897,767.512756 1716.332153,779.718750 
	C1669.994019,794.627502 1623.203247,794.047119 1576.927246,778.803772 
	C1558.713623,772.804138 1542.517090,762.961243 1529.633301,748.336487 
z"/>
<path fill="#1F6D52" opacity="1.000000" stroke="none" 
	d="
M146.631287,770.501831 
	C168.294327,769.985413 189.935150,769.891357 211.576065,769.814880 
	C220.454163,769.783508 221.258041,769.013184 221.164062,760.122498 
	C220.746994,720.664001 220.314102,681.205627 219.890274,641.747253 
	C219.872498,640.091064 219.888016,638.434509 219.888016,635.990356 
	C221.850952,635.990356 223.603912,635.990417 225.356857,635.990356 
	C245.839355,635.989746 266.323181,636.136841 286.804016,635.951904 
	C313.648560,635.709595 339.870026,631.970337 364.491272,620.532043 
	C402.406586,602.917786 423.906921,572.985168 429.967255,531.907715 
	C433.536346,507.716064 432.363678,483.705536 423.979370,460.527771 
	C421.116302,452.613037 416.724487,445.251343 413.020569,437.277527 
	C415.172913,439.105225 417.576630,441.103912 419.460022,443.509918 
	C432.336365,459.959137 438.919739,478.951233 441.449158,499.455414 
	C444.619019,525.150879 442.842010,550.413269 432.747101,574.494995 
	C418.253998,609.068726 391.143280,629.257446 356.127350,639.930847 
	C338.171661,645.404053 319.703613,647.799011 300.976349,647.936707 
	C277.836670,648.106873 254.694778,647.977417 230.889435,647.977417 
	C230.889435,649.978333 230.872070,651.725952 230.891998,653.473206 
	C231.347839,693.453613 231.808517,733.434021 232.266159,773.414429 
	C232.348984,780.651855 231.243607,781.782349 223.930481,781.786438 
	C201.771057,781.799011 179.611633,781.791504 157.452209,781.791077 
	C146.732422,781.790894 146.384354,781.441650 146.631287,770.501831 
z"/>
<path fill="#1E6C51" opacity="1.000000" stroke="none" 
	d="
M1004.531433,770.373901 
	C1023.055359,770.004822 1041.690918,770.004822 1060.893555,770.004822 
	C1060.893555,743.310852 1060.893555,717.089050 1060.893555,690.068298 
	C1065.363892,690.068298 1069.282593,690.068298 1073.201294,690.068298 
	C1081.365723,690.068176 1089.538818,690.277466 1097.688965,689.936768 
	C1100.044922,689.838379 1102.899048,688.738953 1104.565552,687.114441 
	C1117.688354,674.321533 1130.521851,661.232239 1143.591064,648.383240 
	C1146.036621,645.978882 1147.075195,643.580505 1147.067261,640.118164 
	C1146.960327,593.631287 1146.999878,547.144104 1147.026855,500.163757 
	C1150.307251,502.734772 1153.710693,505.663361 1156.733521,508.942902 
	C1157.683105,509.973175 1157.952393,511.946228 1157.954346,513.488525 
	C1158.015503,560.121643 1158.035522,606.754944 1157.899048,653.387695 
	C1157.893066,655.419861 1156.860718,657.950439 1155.440063,659.399109 
	C1142.264526,672.834473 1128.958984,686.144897 1115.505127,699.301575 
	C1113.947998,700.824402 1111.276001,701.926331 1109.094604,701.972107 
	C1096.983032,702.226501 1084.863281,702.094116 1072.287354,702.094116 
	C1072.287354,728.785583 1072.287354,755.021423 1072.287354,781.872925 
	C1069.393066,781.872925 1066.953491,781.872925 1064.513916,781.872925 
	C1048.525391,781.872925 1032.534058,781.705750 1016.550171,781.979431 
	C1012.024963,782.056885 1008.950134,781.176453 1007.493408,776.555054 
	C1006.852051,774.520325 1005.611511,772.674500 1004.531433,770.373901 
z"/>
<path fill="#1F6D52" opacity="1.000000" stroke="none" 
	d="
M547.866455,707.417603 
	C544.529053,707.874329 541.204285,707.874329 537.362854,707.874329 
	C533.665527,604.456543 535.275635,501.183807 537.018860,397.441589 
	C538.559082,396.968201 540.060242,397.011597 541.557190,396.950928 
	C546.258362,396.760406 548.117371,399.091095 548.038269,403.670563 
	C547.739014,420.990509 547.624390,438.313629 547.329529,455.633667 
	C545.902954,539.413269 545.619568,623.189636 547.866455,707.417603 
z"/>
<path fill="#1D6B50" opacity="1.000000" stroke="none" 
	d="
M462.906921,770.517578 
	C538.151123,770.058411 613.380432,770.042542 688.609741,770.025635 
	C697.611572,770.023560 698.092773,769.530762 698.094055,760.328918 
	C698.095886,747.180359 698.095337,734.031860 698.104492,720.408447 
	C699.445007,719.916626 700.776917,719.873962 702.108337,719.887268 
	C707.945190,719.945557 709.092957,721.047607 709.105713,726.955933 
	C709.140259,742.939331 709.139221,758.922852 709.106079,774.906250 
	C709.094116,780.679199 707.789124,782.021973 702.105835,782.023254 
	C624.686035,782.040527 547.266296,782.040405 469.846497,782.023438 
	C464.044769,782.022156 462.851196,780.746033 462.839813,774.955872 
	C462.837189,773.624207 462.873596,772.292358 462.906921,770.517578 
z"/>
<path fill="#1E6C51" opacity="1.000000" stroke="none" 
	d="
M1587.051270,692.584229 
	C1585.162842,691.412964 1582.873779,690.172668 1581.422119,688.287415 
	C1571.883667,675.900024 1567.718140,661.428406 1566.135132,646.182495 
	C1565.278320,637.929993 1565.037598,629.581726 1565.042847,621.276978 
	C1565.073608,572.669434 1565.148804,524.061401 1565.436646,475.454956 
	C1565.590210,449.498871 1566.200562,423.545471 1566.809082,397.228333 
	C1568.345215,396.870026 1569.677368,396.855774 1571.008545,396.881805 
	C1576.240845,396.984039 1577.723267,398.440643 1577.694458,403.841827 
	C1577.659912,410.331543 1577.389282,416.819946 1577.347534,423.309723 
	C1576.885864,495.049805 1576.403931,566.789795 1576.035889,638.530396 
	C1575.940186,657.158386 1578.305054,675.360168 1587.051270,692.584229 
z"/>
<path fill="#1D6B50" opacity="1.000000" stroke="none" 
	d="
M1346.489380,770.537415 
	C1367.971558,770.076050 1389.436768,770.037781 1410.902100,769.993164 
	C1417.776489,769.978882 1418.989990,768.766724 1418.992188,761.852783 
	C1418.999756,737.224548 1418.995483,712.596375 1418.995483,687.968140 
	C1418.995483,686.190918 1418.995361,684.413696 1418.995361,682.129944 
	C1430.669922,682.129944 1441.775879,682.136902 1452.881836,682.127563 
	C1460.556030,682.121094 1461.213257,681.483032 1461.218994,673.933228 
	C1461.229370,660.287842 1461.215576,646.642517 1461.196289,632.531372 
	C1462.179199,632.042786 1463.177490,632.002441 1464.175903,631.999939 
	C1471.275146,631.981812 1472.315430,632.969116 1472.326416,640.006348 
	C1472.350586,655.488037 1472.355347,670.969849 1472.323242,686.451477 
	C1472.309082,693.270630 1471.376709,694.153015 1464.435059,694.163452 
	C1453.150146,694.180420 1441.865112,694.168030 1430.002930,694.168030 
	C1430.002930,696.318237 1430.002808,698.089783 1430.002808,699.861389 
	C1430.002686,724.498962 1430.005737,749.136475 1430.000977,773.774048 
	C1429.999634,781.001831 1428.975342,781.999573 1421.559937,782.001282 
	C1400.251709,782.006226 1378.943604,782.003113 1357.635376,782.003052 
	C1346.501709,782.002991 1346.431274,781.933350 1346.489380,770.537415 
z"/>
<path fill="#1C6A4F" opacity="1.000000" stroke="none" 
	d="
M1429.988525,619.467285 
	C1426.513916,619.929077 1423.048096,619.929077 1419.072266,619.929077 
	C1419.072266,545.488464 1419.072266,471.387909 1419.090698,396.847168 
	C1420.939819,396.410736 1422.779175,396.302155 1424.599365,396.442200 
	C1428.120361,396.713104 1430.097778,398.537903 1430.001709,402.244812 
	C1429.975830,403.243042 1429.999878,404.242523 1429.999878,405.241425 
	C1429.999146,476.496124 1429.998291,547.750854 1429.988525,619.467285 
z"/>
<path fill="#206D52" opacity="1.000000" stroke="none" 
	d="
M794.130249,770.492798 
	C833.860962,769.980957 873.588135,769.927673 913.315247,769.875000 
	C915.291748,769.872375 917.268311,769.874634 920.127930,769.874634 
	C920.127930,750.391357 920.127930,731.201538 920.128296,711.547302 
	C923.593506,711.082947 927.058411,711.082947 930.830200,711.082947 
	C930.830200,734.725342 930.830200,758.072632 930.830200,781.649292 
	C885.380493,781.649292 840.159119,781.649292 794.126648,781.649292 
	C794.126648,778.098877 794.126648,774.525208 794.130249,770.492798 
z"/>
<path fill="#1E6D52" opacity="1.000000" stroke="none" 
	d="
M1174.253906,682.590088 
	C1227.871826,682.161743 1281.470947,682.161743 1335.431396,682.161743 
	C1335.431396,686.266663 1335.431396,689.876892 1335.210693,693.840942 
	C1285.084839,694.187622 1235.179688,694.180237 1185.274536,694.173340 
	C1174.276001,694.171875 1174.148193,694.043579 1174.253906,682.590088 
z"/>
<path fill="#1F6F53" opacity="1.000000" stroke="none" 
	d="
M1105.143677,455.562653 
	C1102.326904,454.986267 1099.670166,453.303467 1096.962036,453.216583 
	C1086.806763,452.890686 1076.634888,453.096680 1066.469238,453.075287 
	C1064.851685,453.071899 1063.234375,452.924744 1061.377686,452.832153 
	C1061.377686,449.909302 1061.377686,447.326416 1061.377686,444.267151 
	C1072.150879,444.267151 1082.743530,444.267151 1094.247803,444.267151 
	C1094.247803,424.570435 1094.247803,405.335815 1094.220581,385.644958 
	C1097.664429,385.188660 1101.135498,385.188660 1105.280029,385.188660 
	C1105.280029,408.618866 1105.280029,431.903900 1105.143677,455.562653 
z"/>
<path fill="#1E6D51" opacity="1.000000" stroke="none" 
	d="
M717.246948,690.579346 
	C750.072754,690.128723 782.883118,690.128723 816.132935,690.128723 
	C816.132935,693.095215 816.132935,695.802673 816.132935,699.053101 
	C806.560242,699.053101 797.107117,698.955444 787.660034,699.151306 
	C786.127197,699.183105 784.621277,700.515869 783.040894,701.665771 
	C761.273499,702.084167 739.568115,702.084167 717.231445,702.084167 
	C717.231445,698.203674 717.231445,694.616760 717.246948,690.579346 
z"/>
<path fill="#1E6D52" opacity="1.000000" stroke="none" 
	d="
M920.573242,702.063843 
	C920.496277,699.052063 918.604553,699.011658 916.411743,699.029480 
	C908.440918,699.094116 900.469299,699.067078 892.498047,699.044067 
	C890.884460,699.039429 889.271240,698.901489 887.407837,698.813171 
	C887.407837,695.906738 887.407837,693.331665 887.407837,690.064209 
	C889.324036,690.064209 891.085144,690.064209 892.846191,690.064209 
	C912.608337,690.064209 932.372681,690.219727 952.131104,689.948425 
	C956.737549,689.885193 959.641418,691.003845 961.131042,695.479614 
	C961.805115,697.504700 962.998962,699.356812 963.986511,701.649170 
	C949.687439,702.033813 935.358765,702.056641 920.573242,702.063843 
z"/>
<path fill="#267358" opacity="1.000000" stroke="none" 
	d="
M923.927734,452.606964 
	C922.034729,452.229065 918.986511,452.070038 918.265686,450.692810 
	C907.003418,429.175873 896.041931,407.501556 885.005981,385.499512 
	C888.033142,384.542786 889.706177,385.738159 891.149231,388.584686 
	C901.938660,409.866608 912.928223,431.046967 923.927734,452.606964 
z"/>
<path fill="#216F54" opacity="1.000000" stroke="none" 
	d="
M794.148926,444.560913 
	C801.432129,444.123718 808.701782,444.123718 816.279053,444.123718 
	C816.279053,447.125061 816.279053,449.706055 816.279053,453.007111 
	C809.165039,453.007111 802.108398,453.007111 794.592407,452.978973 
	C794.133789,450.299927 794.134583,447.648987 794.148926,444.560913 
z"/>
<path fill="#1F6F53" opacity="1.000000" stroke="none" 
	d="
M968.152832,444.559814 
	C975.267151,444.122375 982.367554,444.122375 990.148132,444.122375 
	C990.290527,446.965729 990.424133,449.634491 990.593201,453.009827 
	C983.109558,453.009827 976.080627,453.009827 968.592285,452.982483 
	C968.134888,450.302521 968.136902,447.649872 968.152832,444.559814 
z"/>
<path fill="#216F54" opacity="1.000000" stroke="none" 
	d="
M717.229980,524.559937 
	C721.505005,524.107666 725.767151,524.107666 730.374146,524.107666 
	C730.374146,528.140015 730.374146,531.739746 730.187622,535.698242 
	C725.932556,536.057007 721.864014,536.057007 717.217163,536.057007 
	C717.217163,532.116028 717.217163,528.564148 717.229980,524.559937 
z"/>
<path fill="#1F6C51" opacity="1.000000" stroke="none" 
	d="
M1527.204346,746.412598 
	C1528.048706,746.534668 1528.968384,746.999451 1529.933838,747.786255 
	C1529.079590,747.657288 1528.179688,747.206299 1527.204346,746.412598 
z"/>
<path fill="#1E6C51" opacity="1.000000" stroke="none" 
	d="
M1588.427002,694.710083 
	C1587.967407,694.574463 1587.370361,694.128906 1586.903320,693.305542 
	C1587.452148,693.418518 1587.870850,693.909302 1588.427002,694.710083 
z"/>
<path fill="#1F6D52" opacity="1.000000" stroke="none" 
	d="
M412.124268,435.757599 
	C411.801514,435.584778 411.546875,435.122742 411.148560,434.428345 
	C411.400696,434.620087 411.796570,435.044250 412.124268,435.757599 
z"/>
<path fill="#1F6D52" opacity="1.000000" stroke="none" 
	d="
M413.096924,436.670837 
	C412.775513,436.823120 412.469269,436.641876 412.072510,436.195374 
	C412.358673,436.065857 412.735352,436.201569 413.096924,436.670837 
z"/>
<path fill="#1E6D52" opacity="1.000000" stroke="none" 
	d="
M812.110840,618.977722 
	C808.649597,618.977722 805.188416,618.977722 801.426147,618.977722 
	C801.426147,587.365601 801.426147,556.107910 801.426147,524.434326 
	C806.284668,524.434326 811.145264,524.434326 816.591125,524.434326 
	C816.591125,528.006531 816.591125,531.468445 816.257935,535.433228 
	C812.235779,535.314514 812.076660,537.506531 812.083740,540.340637 
	C812.149475,566.552856 812.115662,592.765320 812.110840,618.977722 
z"/>
<path fill="#1E6D52" opacity="1.000000" stroke="none" 
	d="
M1072.144775,618.942871 
	C1068.687744,618.942871 1065.230713,618.942871 1061.452026,618.942871 
	C1061.452026,587.360718 1061.452026,556.050537 1061.452026,524.757141 
	C1072.962524,522.499512 1077.977661,524.446716 1075.744385,535.668274 
	C1071.063110,535.540283 1072.162720,538.577698 1072.159790,540.637512 
	C1072.121460,566.739258 1072.140381,592.841064 1072.144775,618.942871 
z"/>
<path fill="#216F54" opacity="1.000000" stroke="none" 
	d="
M989.989258,580.243774 
	C990.209534,583.179260 990.429810,586.114746 990.650085,589.050293 
	C990.282410,589.183533 989.914795,589.316772 989.547119,589.450073 
	C978.471802,567.947815 967.396423,546.445618 956.042786,524.403076 
	C967.712158,524.403076 978.827515,524.403076 990.336243,524.403076 
	C990.336243,528.099060 990.336243,531.708252 989.694824,535.678345 
	C981.952209,536.039124 974.851135,536.039124 966.814148,536.039124 
	C974.778442,551.230347 982.383911,565.737061 989.989258,580.243774 
z"/>
<path fill="#1F6F53" opacity="1.000000" stroke="none" 
	d="
M898.180786,618.980896 
	C894.719116,618.980896 891.257446,618.980896 887.456421,618.980896 
	C887.456421,597.152588 887.456421,575.623352 887.456421,554.094116 
	C887.722900,553.935730 887.989380,553.777283 888.255798,553.618896 
	C891.521301,560.504822 894.786743,567.390808 898.128540,575.116333 
	C898.196899,590.297546 898.188843,604.639221 898.180786,618.980896 
z"/>
<path fill="#FDFFFE" opacity="1.000000" stroke="none" 
	d="
M898.637146,618.985840 
	C898.188843,604.639221 898.196899,590.297546 898.235474,575.481934 
	C900.505493,578.863586 902.891479,582.642517 904.956055,586.589539 
	C910.409363,597.015808 915.723328,607.514954 921.608643,618.990723 
	C913.492554,618.990723 906.293030,618.990723 898.637146,618.985840 
z"/>
<path fill="#FBFDFC" opacity="1.000000" stroke="none" 
	d="
M989.996765,579.756470 
	C982.383911,565.737061 974.778442,551.230347 966.814148,536.039124 
	C974.851135,536.039124 981.952209,536.039124 989.522217,536.042236 
	C989.995483,550.453369 989.999878,564.861267 989.996765,579.756470 
z"/>
<path fill="#F1F6F4" opacity="1.000000" stroke="none" 
	d="
M812.533447,618.995239 
	C812.115662,592.765320 812.149475,566.552856 812.083740,540.340637 
	C812.076660,537.506531 812.235779,535.314514 816.326416,535.879272 
	C816.757874,562.242188 816.757935,588.661926 816.859863,615.081299 
	C816.871033,617.976501 816.200928,619.625366 812.533447,618.995239 
z"/>
<path fill="#F1F6F4" opacity="1.000000" stroke="none" 
	d="
M1072.427246,618.777222 
	C1072.140381,592.841064 1072.121460,566.739258 1072.159790,540.637512 
	C1072.162720,538.577698 1071.063110,535.540283 1075.580811,536.008789 
	C1076.061768,560.261230 1076.071289,584.511108 1076.209106,608.760193 
	C1076.230835,612.567139 1077.157349,616.483948 1072.427246,618.777222 
z"/>
<path fill="#FFFFFF" opacity="1.000000" stroke="none" 
	d="
M340.810913,468.802673 
	C354.051727,493.569611 354.770752,519.098022 343.936096,544.613098 
	C336.511658,562.097168 321.813141,571.358459 303.374176,573.809082 
	C292.897156,575.201538 282.165985,574.837219 271.545807,574.958069 
	C258.073639,575.111450 244.597946,574.954285 230.682556,574.507446 
	C230.798309,535.549011 231.355270,497.014221 231.919083,458.005615 
	C243.227737,458.005615 254.157150,458.005554 265.086578,458.005615 
	C276.229858,458.005676 287.375824,458.160004 298.515778,457.967834 
	C313.268524,457.713287 327.109833,460.929291 340.030884,468.067108 
	C340.030884,468.067108 340.052856,467.977997 340.039581,468.184448 
	C340.229218,468.639862 340.490753,468.777130 340.810913,468.802673 
z"/>
<path fill="#1F6C51" opacity="1.000000" stroke="none" 
	d="
M339.870667,467.768250 
	C327.109833,460.929291 313.268524,457.713287 298.515778,457.967834 
	C287.375824,458.160004 276.229858,458.005676 265.086578,458.005615 
	C254.157150,458.005554 243.227737,458.005615 231.919083,458.005615 
	C231.355270,497.014221 230.798309,535.549011 230.227112,574.512695 
	C226.739227,574.941467 223.265564,574.941467 219.083664,574.941467 
	C219.648132,531.991760 220.208847,489.327087 220.772583,446.432922 
	C222.324158,446.251770 223.433289,446.009888 224.542526,446.009369 
	C247.178345,445.999023 269.816376,445.829926 292.449188,446.095734 
	C306.695557,446.263062 320.218719,449.418213 331.497620,458.822906 
	C334.530060,461.351471 336.988525,464.568420 339.870667,467.768250 
z"/>
<path fill="#1F6C51" opacity="1.000000" stroke="none" 
	d="
M340.627502,468.702271 
	C340.490753,468.777130 340.229218,468.639862 339.998016,468.164978 
	C340.012604,468.242584 340.170746,468.463501 340.627502,468.702271 
z"/>
<path fill="#FEFEFE" opacity="1.000000" stroke="none" 
	d="
M1336.952515,478.119019 
	C1336.566284,524.389099 1336.181396,570.659119 1335.783203,616.929077 
	C1335.776367,617.732056 1335.608398,618.533569 1335.445923,619.936707 
	C1306.544312,619.936707 1277.806152,619.936707 1248.708374,619.623657 
	C1276.572388,574.130371 1304.792358,528.947815 1333.031860,483.777435 
	C1334.246948,481.833923 1335.641479,480.002625 1336.952515,478.119019 
z"/>
<path fill="#1E6C51" opacity="1.000000" stroke="none" 
	d="
M1336.960693,477.666321 
	C1335.641479,480.002625 1334.246948,481.833923 1333.031860,483.777435 
	C1304.792358,528.947815 1276.572388,574.130371 1248.248901,619.624878 
	C1242.233521,619.939148 1236.318237,619.939148 1229.443481,619.939148 
	C1265.637817,561.989136 1301.355225,504.802887 1336.968750,447.782990 
	C1336.968750,457.583313 1336.968750,467.398468 1336.960693,477.666321 
z"/>
</svg>