<svg width="28" height="28" viewBox="0 0 28 28" fill="none" xmlns="http://www.w3.org/2000/svg">
<path d="M25.4 27.5L15.95 18.05C15.2 18.65 14.3375 19.125 13.3625 19.475C12.3875 19.825 11.35 20 10.25 20C7.525 20 5.219 19.056 3.332 17.168C1.445 15.28 0.501 12.974 0.5 10.25C0.5 7.525 1.444 5.219 3.332 3.332C5.22 1.445 7.526 0.501 10.25 0.5C12.975 0.5 15.281 1.444 17.168 3.332C19.055 5.22 19.999 7.526 20 10.25C20 11.35 19.825 12.3875 19.475 13.3625C19.125 14.3375 18.65 15.2 18.05 15.95L27.5 25.4L25.4 27.5ZM10.25 17C12.125 17 13.719 16.3435 15.032 15.0305C16.345 13.7175 17.001 12.124 17 10.25C17 8.375 16.3435 6.781 15.0305 5.468C13.7175 4.155 12.124 3.499 10.25 3.5C8.375 3.5 6.781 4.1565 5.468 5.4695C4.155 6.7825 3.499 8.376 3.5 10.25C3.5 12.125 4.1565 13.719 5.4695 15.032C6.7825 16.345 8.376 17.001 10.25 17Z" fill="#0D5044"/>
</svg>
