<svg version="1.1" id="Layer_1" xmlns="http://www.w3.org/2000/svg" xmlns:xlink="http://www.w3.org/1999/xlink" x="0px" y="0px"
	 width="100%" viewBox="0 0 1731 461" enable-background="new 0 0 1731 461" xml:space="preserve">
<path fill="#FFFFFF" opacity="1.000000" stroke="none" 
	d="
M1146.000000,462.000000 
	C764.043457,462.000000 382.586853,462.000000 1.065148,462.000000 
	C1.065148,308.394287 1.065148,154.788528 1.065148,1.091389 
	C578.000000,1.091389 1155.000000,1.091389 1731.966187,1.091389 
	C1731.966187,154.746735 1731.966187,308.373383 1731.966187,462.000000 
	C1536.788208,462.000000 1341.644165,462.000000 1146.000000,462.000000 
M1480.005981,342.996368 
	C1480.005981,342.996368 1480.064575,342.951630 1480.039917,342.222900 
	C1471.455322,325.687988 1468.969116,307.824768 1469.047974,289.535645 
	C1469.352539,218.958969 1469.812500,148.382950 1470.247437,77.806885 
	C1470.296631,69.819168 1470.622803,61.833324 1470.692383,53.845497 
	C1470.739380,48.442280 1469.242310,46.985905 1464.008057,46.882156 
	C1462.676880,46.855766 1461.344727,46.870335 1459.934570,46.008240 
	C1459.906128,44.510437 1459.907837,43.011341 1459.843628,41.515076 
	C1459.657227,37.172985 1457.770142,34.865116 1453.026489,34.885513 
	C1428.211304,34.992203 1403.395386,34.973316 1378.579956,34.903980 
	C1373.880249,34.890850 1371.880737,37.061646 1372.041016,41.613201 
	C1372.321899,49.589432 1372.650635,57.565498 1372.797241,65.544617 
	C1373.194458,87.177055 1373.729248,108.810257 1373.807007,130.444611 
	C1373.976929,177.743088 1373.774048,225.043060 1374.008667,272.341034 
	C1374.066162,283.946991 1374.733643,295.599213 1375.960571,307.140869 
	C1379.684937,342.171906 1394.022339,372.081299 1420.279907,396.755188 
	C1421.179810,397.206177 1422.079712,397.657166 1422.977661,398.022583 
	C1422.977661,398.022583 1422.892822,398.034729 1422.373901,398.638062 
	C1435.516479,412.961761 1451.714844,422.803833 1469.927490,428.802917 
	C1516.201904,444.045135 1562.992310,444.625946 1609.329468,429.719086 
	C1647.267334,417.514221 1672.556152,391.513855 1685.411987,353.651093 
	C1691.840576,334.717072 1694.718872,315.149994 1694.879272,295.252563 
	C1695.459351,223.284470 1695.786499,151.314346 1696.241455,79.345184 
	C1696.294067,71.016685 1696.590210,62.689995 1696.696167,54.361481 
	C1696.772705,48.341133 1695.378662,46.949039 1689.511108,46.878910 
	C1688.344971,46.864971 1687.178589,46.867466 1685.935059,46.004971 
	C1685.905151,45.173462 1685.858032,44.342159 1685.848022,43.510406 
	C1685.759155,36.179073 1684.490967,34.936832 1677.025513,34.935516 
	C1655.877441,34.931782 1634.729248,34.921593 1613.581177,34.943203 
	C1607.903687,34.949005 1606.175659,36.628300 1606.185181,42.404400 
	C1606.191040,45.884502 1606.730347,49.361938 1606.778198,52.844028 
	C1607.162842,80.801201 1607.665283,108.758408 1607.789429,136.717133 
	C1607.994507,182.842468 1608.128296,228.970016 1607.860352,275.094116 
	C1607.798950,285.659912 1606.885620,296.397888 1604.796753,306.739960 
	C1599.534058,332.794830 1584.775757,350.792236 1558.363403,358.070465 
	C1544.480591,361.896057 1530.299805,362.139771 1516.272949,360.545776 
	C1503.343140,359.076416 1490.823486,355.339722 1481.289185,344.400299 
	C1480.870483,343.909485 1480.451904,343.418671 1480.005981,342.996368 
M355.892761,420.960419 
	C355.874298,422.292145 355.837860,423.623871 355.840454,424.955566 
	C355.851837,430.745544 357.045288,432.021545 362.847076,432.022827 
	C440.265228,432.039825 517.683411,432.040039 595.101562,432.022614 
	C600.780945,432.021332 602.093445,430.670746 602.105408,424.905914 
	C602.138489,408.922882 602.139709,392.939667 602.105164,376.956665 
	C602.092407,371.048309 600.944702,369.946167 595.108215,369.887939 
	C593.776855,369.874634 592.444946,369.917389 591.123352,369.039917 
	C590.919495,357.934479 590.919495,357.937927 579.682312,357.933472 
	C533.406372,357.915009 487.130402,357.894287 440.879913,356.960876 
	C438.620880,273.189453 438.903778,189.412811 440.330383,105.633041 
	C440.625305,88.312950 440.739594,70.989761 441.038635,53.669750 
	C441.117706,49.090141 439.258118,46.759895 434.557159,46.950478 
	C433.060181,47.011169 431.559021,46.967659 430.023712,46.082691 
	C430.014069,45.416115 429.997345,44.749554 429.995850,44.082958 
	C429.977203,35.779148 429.190613,34.989002 420.860840,34.987782 
	C398.195068,34.984463 375.529297,34.977131 352.863525,34.992878 
	C345.764343,34.997814 344.830994,35.916676 344.937714,43.145329 
	C345.193420,60.461029 345.543701,77.775314 345.815948,95.090797 
	C346.166779,117.405457 346.758881,139.720856 346.748993,162.035721 
	C346.728577,208.182663 346.471344,254.330139 346.135315,300.476105 
	C345.862366,337.957581 345.319550,375.437103 344.929596,412.917816 
	C344.868896,418.750946 346.057465,419.874084 351.924103,420.010193 
	C353.256714,420.041107 354.589813,420.053467 355.892761,420.960419 
M1067.236084,333.018677 
	C1067.148926,344.035370 1067.284302,344.171173 1078.278809,344.172729 
	C1128.182495,344.179688 1178.086060,344.187164 1228.081055,345.104340 
	C1228.120972,366.191681 1228.166748,387.278992 1228.198120,408.366333 
	C1228.214600,419.363586 1228.536133,419.709778 1239.473633,420.958527 
	C1239.432251,431.933075 1239.502441,432.002625 1250.635742,432.002625 
	C1271.942627,432.002655 1293.249390,432.005798 1314.556274,432.000885 
	C1321.972656,431.999176 1322.999268,431.000061 1323.000610,423.777466 
	C1323.005371,399.141418 1323.002441,374.505371 1323.002441,349.869324 
	C1323.002441,348.096863 1323.002319,346.324432 1323.002319,344.166779 
	C1335.023071,344.166779 1346.473022,344.187195 1357.922974,344.158691 
	C1364.241577,344.142944 1365.266479,343.166229 1365.281494,336.953766 
	C1365.319702,321.140167 1365.315186,305.326416 1365.284668,289.512787 
	C1365.272217,283.104004 1364.117920,282.011871 1357.675415,282.001038 
	C1356.510620,281.999084 1355.345825,282.043213 1354.167114,281.155365 
	C1354.159424,280.160706 1354.149414,279.166016 1354.144531,278.171356 
	C1354.106812,270.601318 1353.508911,270.016388 1345.856201,269.998688 
	C1338.230591,269.981018 1330.604858,269.952545 1322.996826,269.005371 
	C1322.997803,197.751221 1322.998901,126.497086 1322.999756,55.242943 
	C1322.999756,54.244053 1322.975342,53.244576 1323.001221,52.246380 
	C1323.097412,48.539970 1321.121460,46.713856 1317.599854,46.443138 
	C1315.779663,46.303215 1313.940308,46.411419 1312.034302,45.469360 
	C1311.914307,34.461678 1311.611450,34.168835 1300.339233,34.168808 
	C1270.681885,34.168736 1241.023926,34.279339 1211.367798,34.086376 
	C1204.485962,34.041595 1199.939209,36.538322 1196.270264,42.441601 
	C1184.234375,61.806633 1171.804810,80.927414 1159.489258,100.118111 
	C1126.497070,151.528336 1093.443848,202.899490 1060.576416,254.389297 
	C1058.407959,257.786377 1056.434326,262.025970 1056.351440,265.915863 
	C1055.922241,286.066925 1056.096680,306.231873 1056.166992,326.391602 
	C1056.179077,329.872803 1058.126343,331.951508 1061.776489,332.073120 
	C1063.607544,332.134155 1065.440918,332.134460 1067.236084,333.018677 
M305.776550,86.293510 
	C304.976685,85.446350 304.088318,84.666061 303.390198,83.742020 
	C292.540710,69.380730 278.827820,58.608799 262.554138,51.013767 
	C238.118378,39.609413 212.100342,35.350376 185.474091,35.135006 
	C135.647385,34.731983 85.815186,35.002552 35.985271,35.007832 
	C29.708519,35.008499 28.753529,35.942432 28.836130,42.329163 
	C29.126890,64.810814 29.486172,87.291573 29.808542,109.772835 
	C30.164366,134.586899 30.794882,159.401199 30.790545,184.215302 
	C30.783909,222.194717 30.391804,260.174530 30.051062,298.153198 
	C29.888231,316.302185 29.381643,334.447937 29.186398,352.596832 
	C28.969473,372.760620 28.909218,392.926208 28.826931,413.091217 
	C28.804976,418.471619 30.107872,419.686371 35.674149,419.880768 
	C37.005848,419.927277 38.338036,419.959686 39.648880,420.778748 
	C39.347324,431.406616 39.717655,431.790405 50.296516,431.790649 
	C72.623528,431.791107 94.950554,431.802551 117.277550,431.783478 
	C124.173988,431.777557 125.329483,430.530487 125.248787,423.566132 
	C124.781677,383.250641 124.319809,342.935120 123.872040,302.619415 
	C123.856102,301.184631 124.006470,299.748047 124.094818,298.007111 
	C126.070992,298.007111 127.711807,298.007782 129.352631,298.007019 
	C151.013077,297.997009 172.674835,298.131805 194.333542,297.932465 
	C212.890121,297.761688 231.189651,295.374054 248.991562,289.963898 
	C284.966980,279.030701 312.449646,258.109344 326.631348,222.311462 
	C335.976501,198.722198 337.556396,174.097275 334.391205,149.092728 
	C331.795227,128.584549 325.167725,109.625183 312.223755,93.223686 
	C310.407898,90.922813 308.102112,89.008583 305.776550,86.293510 
M686.183472,103.020233 
	C657.285278,103.020233 628.387146,103.020233 599.479614,103.020233 
	C599.479614,127.112450 599.479614,150.342056 599.479614,174.109192 
	C603.304626,174.109192 606.771606,174.109192 610.213501,175.013474 
	C610.213501,178.565430 610.213501,182.117371 610.213501,186.059952 
	C614.863708,186.059952 618.931030,186.059952 623.084106,186.986801 
	C623.084106,214.184357 623.084106,241.381897 623.084106,269.116180 
	C614.845825,269.116180 607.279297,269.116180 599.493225,269.116180 
	C599.493225,292.981934 599.493225,316.303314 599.493225,340.128815 
	C603.331787,340.128815 606.797546,340.128815 610.232300,341.029999 
	C610.232300,344.616760 610.232300,348.203522 610.232300,352.083496 
	C632.568848,352.083496 654.273865,352.083496 676.014954,353.009949 
	C676.014954,375.160736 676.014954,397.311523 676.014954,420.034119 
	C680.239380,420.034119 683.686951,420.034119 687.127319,420.951477 
	C687.127319,424.525055 687.127319,428.098633 687.127319,431.648834 
	C733.159424,431.648834 778.380005,431.648834 823.829712,431.648834 
	C823.829712,408.072754 823.829712,384.725922 823.829712,361.083771 
	C820.058228,361.083771 816.593445,361.083771 813.104980,360.176910 
	C813.108704,357.466949 813.112488,354.756989 814.030090,352.078491 
	C828.358765,352.055664 842.687439,352.032837 857.361084,352.598267 
	C858.279480,354.168579 859.270447,355.701324 860.105103,357.314941 
	C870.163391,376.758972 880.294739,396.166443 890.147339,415.714386 
	C891.839783,419.072235 893.854126,420.500092 897.643677,420.742676 
	C898.612244,422.674286 899.853210,424.520081 900.494263,426.554901 
	C901.950745,431.177704 905.026978,432.056122 909.551636,431.978699 
	C925.536072,431.705292 941.528015,431.872284 957.517151,431.872284 
	C959.956604,431.872284 962.395996,431.872284 965.279846,431.872284 
	C965.279846,405.014801 965.279846,378.775818 965.279846,352.093475 
	C977.848022,352.093475 989.969910,352.225525 1002.083740,351.971863 
	C1004.266235,351.926178 1006.940918,350.830231 1008.497437,349.308136 
	C1021.952026,336.151276 1035.257690,322.839844 1048.434204,309.404205 
	C1049.855469,307.955017 1050.892090,305.426331 1050.898071,303.394806 
	C1051.034790,256.760284 1051.014893,210.125259 1050.953857,163.490417 
	C1050.951782,161.947952 1050.683472,159.974487 1049.733887,158.944229 
	C1046.711060,155.664490 1043.307373,152.735962 1040.046143,149.000397 
	C1038.771729,147.495331 1037.590088,145.898544 1036.208252,144.499420 
	C1023.494080,131.625443 1010.745117,118.785782 998.278870,105.188599 
	C998.278870,81.906258 998.278870,58.623913 998.278870,35.189640 
	C994.133789,35.189640 990.663696,35.189640 987.175476,34.239799 
	C987.175476,30.654514 987.175476,27.069227 987.175476,23.506628 
	C941.018921,23.506628 895.710205,23.506628 850.430664,23.506628 
	C850.430664,47.161602 850.430664,70.378143 850.430664,94.123901 
	C854.241577,94.123901 857.703674,94.123901 861.138184,94.998390 
	C861.136169,97.650253 861.134094,100.302124 860.180298,103.022987 
	C845.786743,103.000267 831.393127,102.977547 816.854309,102.259270 
	C805.927490,81.047302 794.937927,59.867161 784.148743,38.585457 
	C782.705750,35.739227 781.033081,34.543690 777.453247,34.706913 
	C776.364807,32.840946 774.910400,31.093651 774.259216,29.085859 
	C772.580688,23.910107 769.132812,22.900808 764.026306,22.947161 
	C736.730774,23.194918 709.431824,23.063986 682.134094,23.063986 
	C680.223450,23.063986 678.312805,23.063986 676.429810,23.063986 
	C676.429810,47.151939 676.429810,70.372353 676.429810,94.123856 
	C680.240479,94.123856 683.703064,94.123856 687.138123,94.998238 
	C687.137329,97.649101 687.136475,100.299957 686.183472,103.020233 
z"/>
<path fill="#7BF6CC" opacity="1.000000" stroke="none" 
	d="
M610.238525,174.109192 
	C606.771606,174.109192 603.304626,174.109192 599.479614,174.109192 
	C599.479614,150.342056 599.479614,127.112450 599.479614,103.020233 
	C628.387146,103.020233 657.285278,103.020233 687.118774,103.012955 
	C695.098877,103.005684 702.143677,103.005684 709.237183,103.005684 
	C709.237183,99.751991 709.237183,97.182640 709.237183,94.123856 
	C701.651855,94.123856 694.408752,94.123856 687.165588,94.123856 
	C683.703064,94.123856 680.240479,94.123856 676.429810,94.123856 
	C676.429810,70.372353 676.429810,47.151939 676.429810,23.063986 
	C678.312805,23.063986 680.223450,23.063986 682.134094,23.063986 
	C709.431824,23.063986 736.730774,23.194918 764.026306,22.947161 
	C769.132812,22.900808 772.580688,23.910107 774.259216,29.085859 
	C774.910400,31.093651 776.364807,32.840946 777.732239,35.285378 
	C789.041992,57.501534 800.003418,79.175491 811.265381,100.692131 
	C811.986328,102.069466 815.034180,102.228851 816.999573,102.954819 
	C831.393127,102.977547 845.786743,103.000267 861.115601,103.016739 
	C869.080566,103.010483 876.110107,103.010483 883.594360,103.010483 
	C883.425720,99.634499 883.292358,96.965500 883.150391,94.123901 
	C875.367798,94.123901 868.266785,94.123901 861.165710,94.123901 
	C857.703674,94.123901 854.241577,94.123901 850.430664,94.123901 
	C850.430664,70.378143 850.430664,47.161602 850.430664,23.506628 
	C895.710205,23.506628 941.018921,23.506628 987.175476,23.506628 
	C987.175476,27.069227 987.175476,30.654514 987.211792,35.170944 
	C987.248169,55.336323 987.248169,74.570564 987.248169,94.267029 
	C975.743835,94.267029 965.151306,94.267029 954.377625,94.267029 
	C954.377625,97.326126 954.377625,99.908951 954.377625,102.832001 
	C956.226318,102.924278 957.847534,103.071838 959.468994,103.075272 
	C969.634460,103.096771 979.806152,102.890793 989.961121,103.216652 
	C992.669189,103.303543 995.325989,104.986115 998.006348,105.936081 
	C1010.745117,118.785782 1023.494080,131.625443 1036.208252,144.499420 
	C1037.590088,145.898544 1038.771729,147.495331 1040.024658,149.829132 
	C1039.999878,197.144791 1039.960327,243.631790 1040.067261,290.118439 
	C1040.075195,293.580841 1039.036621,295.979156 1036.590942,298.383575 
	C1023.521912,311.232544 1010.688416,324.321716 997.565552,337.114563 
	C995.899109,338.739075 993.044983,339.838440 990.689087,339.936920 
	C982.538940,340.277618 974.365845,340.068359 966.201477,340.068420 
	C962.282776,340.068451 958.364075,340.068451 953.893677,340.068451 
	C953.893677,367.089111 953.893677,393.310791 953.893677,420.004639 
	C934.690979,420.004639 916.055420,420.004639 897.419922,420.004639 
	C893.854126,420.500092 891.839783,419.072235 890.147339,415.714386 
	C880.294739,396.166443 870.163391,376.758972 860.105103,357.314941 
	C859.270447,355.701324 858.279480,354.168579 857.158813,351.942444 
	C855.998535,349.356140 854.804443,347.504150 854.130493,345.479095 
	C852.640808,341.003113 849.736023,339.885712 845.130188,339.948883 
	C825.372314,340.220123 805.608643,340.064575 785.847046,340.064606 
	C784.085999,340.064606 782.324951,340.064606 780.408264,340.064606 
	C780.408264,343.331512 780.408264,345.906433 780.408264,348.812988 
	C782.264160,348.900970 783.880981,349.039124 785.498230,349.043823 
	C793.469238,349.066895 801.440613,349.093658 809.411194,349.029358 
	C811.602539,349.011688 813.496887,349.049255 813.116272,352.047028 
	C813.112488,354.756989 813.108704,357.466949 813.116455,361.094604 
	C813.127930,381.202026 813.127930,400.391724 813.127930,419.874695 
	C810.268066,419.874695 808.291565,419.872406 806.315063,419.875000 
	C766.588257,419.927734 726.861389,419.980988 687.134583,420.034119 
	C683.686951,420.034119 680.239380,420.034119 676.014954,420.034119 
	C676.014954,397.311523 676.014954,375.160736 676.058960,352.128357 
	C677.621460,350.515594 679.127563,349.183167 680.660522,349.151398 
	C690.107422,348.955597 699.560364,349.053192 709.132385,349.053192 
	C709.132385,345.802338 709.132385,343.094940 709.132385,340.128815 
	C675.882935,340.128815 643.073181,340.128815 610.263367,340.128815 
	C606.797546,340.128815 603.331787,340.128815 599.493225,340.128815 
	C599.493225,316.303314 599.493225,292.981934 599.493225,269.116180 
	C607.279297,269.116180 614.845825,269.116180 623.084106,269.116180 
	C623.084106,241.381897 623.084106,214.184357 623.230530,186.165497 
	C623.376953,181.742401 623.376953,178.140610 623.376953,174.109192 
	C618.765442,174.109192 614.502014,174.109192 610.238525,174.109192 
M791.052490,224.276154 
	C787.787476,217.391129 784.522400,210.506088 781.257385,203.621048 
	C780.990295,203.778717 780.723267,203.936386 780.456238,204.094055 
	C780.456238,225.623520 780.456238,247.152985 780.456238,268.981140 
	C784.257629,268.981140 787.719360,268.981140 792.093872,268.990936 
	C799.293213,268.990936 806.492554,268.990936 814.617432,268.990936 
	C809.023682,258.107788 804.008606,248.203430 798.847900,238.375580 
	C796.467529,233.842377 793.802307,229.458740 791.052490,224.276154 
M883.335876,185.317307 
	C883.335876,181.708206 883.335876,178.099091 883.335876,174.402466 
	C871.826294,174.402466 860.709961,174.402466 849.054504,174.402466 
	C860.401672,196.440536 871.474121,217.944992 882.546570,239.449448 
	C882.914246,239.316223 883.281860,239.182999 883.649536,239.049774 
	C883.429504,236.114441 883.209412,233.179123 883.004272,229.269241 
	C882.999939,214.861313 882.995544,200.453369 883.335876,185.317307 
M969.550903,184.963211 
	C970.468689,173.788681 965.710938,172.826157 954.447998,174.693787 
	C954.447998,205.999451 954.447998,237.330612 954.447998,268.943726 
	C958.227295,268.943726 961.684998,268.943726 965.724182,268.604462 
	C967.083740,266.139404 969.598572,263.686401 969.624512,261.207428 
	C969.886963,236.069946 969.743042,210.928223 969.550903,184.963211 
M709.591064,184.930344 
	C709.591064,181.468460 709.591064,178.006561 709.591064,174.434464 
	C704.143188,174.434464 699.283508,174.434464 694.426147,174.434464 
	C694.426147,206.108063 694.426147,237.365555 694.426147,268.978149 
	C698.188354,268.978149 701.649536,268.978149 705.955872,269.012909 
	C709.200806,269.625031 709.870667,267.976105 709.859497,265.080963 
	C709.757751,238.661667 709.757935,212.241974 709.591064,184.930344 
z"/>
<path fill="#7BF6CC" opacity="1.000000" stroke="none" 
	d="
M1481.564331,345.020081 
	C1490.823486,355.339722 1503.343140,359.076416 1516.272949,360.545776 
	C1530.299805,362.139771 1544.480591,361.896057 1558.363403,358.070465 
	C1584.775757,350.792236 1599.534058,332.794830 1604.796753,306.739960 
	C1606.885620,296.397888 1607.798950,285.659912 1607.860352,275.094116 
	C1608.128296,228.970016 1607.994507,182.842468 1607.789429,136.717133 
	C1607.665283,108.758408 1607.162842,80.801201 1606.778198,52.844028 
	C1606.730347,49.361938 1606.191040,45.884502 1606.185181,42.404400 
	C1606.175659,36.628300 1607.903687,34.949005 1613.581177,34.943203 
	C1634.729248,34.921593 1655.877441,34.931782 1677.025513,34.935516 
	C1684.490967,34.936832 1685.759155,36.179073 1685.848022,43.510406 
	C1685.858032,44.342159 1685.905151,45.173462 1685.762451,46.793053 
	C1685.190552,73.895973 1684.588013,100.209633 1684.435425,126.525902 
	C1684.149658,175.848740 1684.421143,225.176727 1683.814331,274.494629 
	C1683.626587,289.741913 1682.583862,305.194550 1679.796875,320.155304 
	C1669.628174,374.745361 1637.450562,409.198700 1583.125244,422.180450 
	C1555.287354,428.832703 1527.085571,429.477692 1498.758057,426.038452 
	C1472.272339,422.822876 1447.353271,415.237427 1425.520630,399.243713 
	C1424.758545,398.685364 1423.773804,398.430817 1422.892822,398.034729 
	C1422.892822,398.034729 1422.977661,398.022583 1422.932983,397.743225 
	C1421.968506,396.999237 1421.048828,396.534576 1420.129028,396.069916 
	C1394.022339,372.081299 1379.684937,342.171906 1375.960571,307.140869 
	C1374.733643,295.599213 1374.066162,283.946991 1374.008667,272.341034 
	C1373.774048,225.043060 1373.976929,177.743088 1373.807007,130.444611 
	C1373.729248,108.810257 1373.194458,87.177055 1372.797241,65.544617 
	C1372.650635,57.565498 1372.321899,49.589432 1372.041016,41.613201 
	C1371.880737,37.061646 1373.880249,34.890850 1378.579956,34.903980 
	C1403.395386,34.973316 1428.211304,34.992203 1453.026489,34.885513 
	C1457.770142,34.865116 1459.657227,37.172985 1459.843628,41.515076 
	C1459.907837,43.011341 1459.906128,44.510437 1459.769409,46.799667 
	C1459.200073,73.545738 1458.589844,99.499168 1458.436157,125.455292 
	C1458.148438,174.061905 1458.072998,222.670059 1458.042236,271.277649 
	C1458.036987,279.582428 1458.265381,287.932861 1459.137451,296.182770 
	C1460.747803,311.416870 1464.867676,325.906494 1474.421753,338.288300 
	C1475.875488,340.172333 1478.162842,341.413269 1480.064575,342.951660 
	C1480.064575,342.951630 1480.005981,342.996368 1479.889526,343.339905 
	C1480.370117,344.128967 1480.967285,344.574524 1481.564331,345.020081 
z"/>
<path fill="#7BF6CC" opacity="1.000000" stroke="none" 
	d="
M39.669998,419.998596 
	C38.338036,419.959686 37.005848,419.927277 35.674149,419.880768 
	C30.107872,419.686371 28.804976,418.471619 28.826931,413.091217 
	C28.909218,392.926208 28.969473,372.760620 29.186398,352.596832 
	C29.381643,334.447937 29.888231,316.302185 30.051062,298.153198 
	C30.391804,260.174530 30.783909,222.194717 30.790545,184.215302 
	C30.794882,159.401199 30.164366,134.586899 29.808542,109.772835 
	C29.486172,87.291573 29.126890,64.810814 28.836130,42.329163 
	C28.753529,35.942432 29.708519,35.008499 35.985271,35.007832 
	C85.815186,35.002552 135.647385,34.731983 185.474091,35.135006 
	C212.100342,35.350376 238.118378,39.609413 262.554138,51.013767 
	C278.827820,58.608799 292.540710,69.380730 303.390198,83.742020 
	C304.088318,84.666061 304.976685,85.446350 305.903992,86.964096 
	C309.726440,95.256226 314.120453,102.625023 316.984955,110.546875 
	C325.434143,133.913071 326.609802,158.123169 322.905853,182.483261 
	C316.754822,222.937134 295.552460,252.605179 258.239014,270.184113 
	C233.333191,281.917633 206.772446,285.721039 179.561691,285.954559 
	C159.230011,286.129028 138.895645,285.989563 118.562469,285.989899 
	C116.790894,285.989929 115.019310,285.989899 112.889061,285.989899 
	C112.889061,288.444489 112.872108,290.247467 112.891556,292.050018 
	C113.313988,331.208527 113.745064,370.366943 114.162918,409.525513 
	C114.266037,419.189514 113.648598,419.790314 104.157860,419.813751 
	C82.661888,419.866852 61.165951,419.935974 39.669998,419.998596 
M232.442856,117.681480 
	C229.964310,114.825478 227.797745,111.603485 224.952316,109.177864 
	C213.624451,99.521309 199.937378,96.288025 185.515152,96.103539 
	C162.875824,95.813927 140.230331,95.999977 117.587448,96.007889 
	C116.475456,96.008278 115.363548,96.231171 113.787346,96.400253 
	C113.215042,139.307770 112.645866,181.980637 112.072853,224.941269 
	C116.264191,224.941269 119.738586,224.941269 124.123856,224.930923 
	C132.610947,224.954376 141.099869,225.100449 149.584747,224.974564 
	C165.035065,224.745346 180.603134,225.448944 195.903107,223.769073 
	C217.609650,221.385818 232.559967,208.980957 239.731796,188.164688 
	C244.926071,173.088211 245.286179,157.498413 242.364441,141.918213 
	C240.749649,133.307358 238.749161,124.676186 232.442856,117.681480 
z"/>
<path fill="#7BF6CC" opacity="1.000000" stroke="none" 
	d="
M1322.979248,269.928802 
	C1330.604858,269.952545 1338.230591,269.981018 1345.856201,269.998688 
	C1353.508911,270.016388 1354.106812,270.601318 1354.144531,278.171356 
	C1354.149414,279.166016 1354.159424,280.160706 1354.189575,282.076477 
	C1354.215698,296.642883 1354.229370,310.288177 1354.218872,323.933441 
	C1354.213135,331.482635 1353.555786,332.121033 1345.881470,332.127563 
	C1334.775513,332.136993 1323.669678,332.129974 1311.995239,332.129974 
	C1311.995239,334.413818 1311.995361,336.191040 1311.995361,337.968262 
	C1311.995239,362.596375 1311.999634,387.224457 1311.992065,411.852570 
	C1311.989990,418.766724 1310.776611,419.978943 1303.902344,419.993256 
	C1282.437134,420.038025 1260.972046,420.076447 1239.506836,420.117310 
	C1228.536133,419.709778 1228.214600,419.363586 1228.198120,408.366333 
	C1228.166748,387.278992 1228.120972,366.191681 1228.256104,344.295593 
	C1228.431274,339.876709 1228.431274,336.266541 1228.431274,332.162262 
	C1174.470825,332.162262 1120.871948,332.162262 1067.273193,332.162262 
	C1065.440918,332.134460 1063.607544,332.134155 1061.776489,332.073120 
	C1058.126343,331.951508 1056.179077,329.872803 1056.166992,326.391602 
	C1056.096680,306.231873 1055.922241,286.066925 1056.351440,265.915863 
	C1056.434326,262.025970 1058.407959,257.786377 1060.576416,254.389297 
	C1093.443848,202.899490 1126.497070,151.528336 1159.489258,100.118111 
	C1171.804810,80.927414 1184.234375,61.806633 1196.270264,42.441601 
	C1199.939209,36.538322 1204.485962,34.041595 1211.367798,34.086376 
	C1241.023926,34.279339 1270.681885,34.168736 1300.339233,34.168808 
	C1311.611450,34.168835 1311.914307,34.461678 1312.053223,46.378559 
	C1312.072144,121.388107 1312.072144,195.488449 1312.072144,269.928802 
	C1316.050781,269.928802 1319.515015,269.928802 1322.979248,269.928802 
M1229.395142,128.054840 
	C1230.093994,117.976006 1230.792847,107.897171 1231.491821,97.818336 
	C1231.017822,97.754959 1230.543823,97.691589 1230.069824,97.628212 
	C1194.352661,154.811035 1158.635498,211.993851 1122.442383,269.938629 
	C1129.318726,269.938629 1135.234009,269.938629 1142.068359,269.936127 
	C1170.811768,269.936127 1199.555176,269.936127 1228.800415,269.936127 
	C1228.800415,267.494080 1228.800415,265.698914 1228.800415,263.903748 
	C1228.800415,240.251907 1228.670410,216.599091 1228.843994,192.948532 
	C1228.969849,175.810852 1229.558228,158.676987 1229.805054,141.539474 
	C1229.866333,137.288666 1229.403076,133.030304 1229.395142,128.054840 
z"/>
<path fill="#7BF6CC" opacity="1.000000" stroke="none" 
	d="
M440.854462,357.874390 
	C487.130402,357.894287 533.406372,357.915009 579.682312,357.933472 
	C590.919495,357.937927 590.919495,357.934479 591.109619,369.962006 
	C591.095337,384.032532 591.095886,397.181000 591.094055,410.329437 
	C591.092773,419.530914 590.611633,420.023621 581.609314,420.025635 
	C506.380432,420.042419 431.151550,420.058258 355.922668,420.074402 
	C354.589813,420.053467 353.256714,420.041107 351.924103,420.010193 
	C346.057465,419.874084 344.868896,418.750946 344.929596,412.917816 
	C345.319550,375.437103 345.862366,337.957581 346.135315,300.476105 
	C346.471344,254.330139 346.728577,208.182663 346.748993,162.035721 
	C346.758881,139.720856 346.166779,117.405457 345.815948,95.090797 
	C345.543701,77.775314 345.193420,60.461029 344.937714,43.145329 
	C344.830994,35.916676 345.764343,34.997814 352.863525,34.992878 
	C375.529297,34.977131 398.195068,34.984463 420.860840,34.987782 
	C429.190613,34.989002 429.977203,35.779148 429.995850,44.082958 
	C429.997345,44.749554 430.014069,45.416115 430.000244,46.996803 
	C428.298950,151.184174 426.631439,254.457397 430.382812,357.683167 
	C431.373566,357.791199 431.868591,357.890472 432.363922,357.891724 
	C435.194061,357.898865 438.024261,357.882660 440.854462,357.874390 
z"/>
<path fill="#1F6C52" opacity="1.000000" stroke="none" 
	d="
M1422.633301,398.336395 
	C1423.773804,398.430817 1424.758545,398.685364 1425.520630,399.243713 
	C1447.353271,415.237427 1472.272339,422.822876 1498.758057,426.038452 
	C1527.085571,429.477692 1555.287354,428.832703 1583.125244,422.180450 
	C1637.450562,409.198700 1669.628174,374.745361 1679.796875,320.155304 
	C1682.583862,305.194550 1683.626587,289.741913 1683.814331,274.494629 
	C1684.421143,225.176727 1684.149658,175.848740 1684.435425,126.525902 
	C1684.588013,100.209633 1685.190552,73.895973 1685.801147,47.221756 
	C1687.178589,46.867466 1688.344971,46.864971 1689.511108,46.878910 
	C1695.378662,46.949039 1696.772705,48.341133 1696.696167,54.361481 
	C1696.590210,62.689995 1696.294067,71.016685 1696.241455,79.345184 
	C1695.786499,151.314346 1695.459351,223.284470 1694.879272,295.252563 
	C1694.718872,315.149994 1691.840576,334.717072 1685.411987,353.651093 
	C1672.556152,391.513855 1647.267334,417.514221 1609.329468,429.719086 
	C1562.992310,444.625946 1516.201904,444.045135 1469.927490,428.802917 
	C1451.714844,422.803833 1435.516479,412.961761 1422.633301,398.336395 
z"/>
<path fill="#1F6D52" opacity="1.000000" stroke="none" 
	d="
M39.659439,420.388672 
	C61.165951,419.935974 82.661888,419.866852 104.157860,419.813751 
	C113.648598,419.790314 114.266037,419.189514 114.162918,409.525513 
	C113.745064,370.366943 113.313988,331.208527 112.891556,292.050018 
	C112.872108,290.247467 112.889061,288.444489 112.889061,285.989899 
	C115.019310,285.989899 116.790894,285.989929 118.562469,285.989899 
	C138.895645,285.989563 159.230011,286.129028 179.561691,285.954559 
	C206.772446,285.721039 233.333191,281.917633 258.239014,270.184113 
	C295.552460,252.605179 316.754822,222.937134 322.905853,182.483261 
	C326.609802,158.123169 325.434143,133.913071 316.984955,110.546875 
	C314.120453,102.625023 309.726440,95.256226 306.027283,87.275032 
	C308.102112,89.008583 310.407898,90.922813 312.223755,93.223686 
	C325.167725,109.625183 331.795227,128.584549 334.391205,149.092728 
	C337.556396,174.097275 335.976501,198.722198 326.631348,222.311462 
	C312.449646,258.109344 284.966980,279.030701 248.991562,289.963898 
	C231.189651,295.374054 212.890121,297.761688 194.333542,297.932465 
	C172.674835,298.131805 151.013077,297.997009 129.352631,298.007019 
	C127.711807,298.007782 126.070992,298.007111 124.094818,298.007111 
	C124.006470,299.748047 123.856102,301.184631 123.872040,302.619415 
	C124.319809,342.935120 124.781677,383.250641 125.248787,423.566132 
	C125.329483,430.530487 124.173988,431.777557 117.277550,431.783478 
	C94.950554,431.802551 72.623528,431.791107 50.296516,431.790649 
	C39.717655,431.790405 39.347324,431.406616 39.659439,420.388672 
z"/>
<path fill="#1E6C51" opacity="1.000000" stroke="none" 
	d="
M897.531799,420.373657 
	C916.055420,420.004639 934.690979,420.004639 953.893677,420.004639 
	C953.893677,393.310791 953.893677,367.089111 953.893677,340.068451 
	C958.364075,340.068451 962.282776,340.068451 966.201477,340.068420 
	C974.365845,340.068359 982.538940,340.277618 990.689087,339.936920 
	C993.044983,339.838440 995.899109,338.739075 997.565552,337.114563 
	C1010.688416,324.321716 1023.521912,311.232544 1036.590942,298.383575 
	C1039.036621,295.979156 1040.075195,293.580841 1040.067261,290.118439 
	C1039.960327,243.631790 1039.999878,197.144791 1040.026855,150.164795 
	C1043.307373,152.735962 1046.711060,155.664490 1049.733887,158.944229 
	C1050.683472,159.974487 1050.951782,161.947952 1050.953857,163.490417 
	C1051.014893,210.125259 1051.034790,256.760284 1050.898071,303.394806 
	C1050.892090,305.426331 1049.855469,307.955017 1048.434204,309.404205 
	C1035.257690,322.839844 1021.952026,336.151276 1008.497437,349.308136 
	C1006.940918,350.830231 1004.266235,351.926178 1002.083740,351.971863 
	C989.969910,352.225525 977.848022,352.093475 965.279846,352.093475 
	C965.279846,378.775818 965.279846,405.014801 965.279846,431.872284 
	C962.395996,431.872284 959.956604,431.872284 957.517151,431.872284 
	C941.528015,431.872284 925.536072,431.705292 909.551636,431.978699 
	C905.026978,432.056122 901.950745,431.177704 900.494263,426.554901 
	C899.853210,424.520081 898.612244,422.674286 897.531799,420.373657 
z"/>
<path fill="#206D52" opacity="1.000000" stroke="none" 
	d="
M440.867188,357.417603 
	C438.024261,357.882660 435.194061,357.898865 432.363922,357.891724 
	C431.868591,357.890472 431.373566,357.791199 430.382812,357.683167 
	C426.631439,254.457397 428.298950,151.184174 430.018280,47.441368 
	C431.559021,46.967659 433.060181,47.011169 434.557159,46.950478 
	C439.258118,46.759895 441.117706,49.090141 441.038635,53.669750 
	C440.739594,70.989761 440.625305,88.312950 440.330383,105.633041 
	C438.903778,189.412811 438.620880,273.189453 440.867188,357.417603 
z"/>
<path fill="#1D6B50" opacity="1.000000" stroke="none" 
	d="
M355.907715,420.517395 
	C431.151550,420.058258 506.380432,420.042419 581.609314,420.025635 
	C590.611633,420.023621 591.092773,419.530914 591.094055,410.329437 
	C591.095886,397.181000 591.095337,384.032532 591.104553,370.409241 
	C592.444946,369.917389 593.776855,369.874634 595.108215,369.887939 
	C600.944702,369.946167 602.092407,371.048309 602.105164,376.956665 
	C602.139709,392.939667 602.138489,408.922882 602.105408,424.905914 
	C602.093445,430.670746 600.780945,432.021332 595.101562,432.022614 
	C517.683411,432.040039 440.265228,432.039825 362.847076,432.022827 
	C357.045288,432.021545 355.851837,430.745544 355.840454,424.955566 
	C355.837860,423.623871 355.874298,422.292145 355.907715,420.517395 
z"/>
<path fill="#1E6C51" opacity="1.000000" stroke="none" 
	d="
M1480.052246,342.587280 
	C1478.162842,341.413269 1475.875488,340.172333 1474.421753,338.288300 
	C1464.867676,325.906494 1460.747803,311.416870 1459.137451,296.182770 
	C1458.265381,287.932861 1458.036987,279.582428 1458.042236,271.277649 
	C1458.072998,222.670059 1458.148438,174.061905 1458.436157,125.455292 
	C1458.589844,99.499168 1459.200073,73.545738 1459.808594,47.228592 
	C1461.344727,46.870335 1462.676880,46.855766 1464.008057,46.882156 
	C1469.242310,46.985905 1470.739380,48.442280 1470.692383,53.845497 
	C1470.622803,61.833324 1470.296631,69.819168 1470.247437,77.806885 
	C1469.812500,148.382950 1469.352539,218.958969 1469.047974,289.535645 
	C1468.969116,307.824768 1471.455322,325.687988 1480.052246,342.587280 
z"/>
<path fill="#1D6B50" opacity="1.000000" stroke="none" 
	d="
M1239.490234,420.537903 
	C1260.972046,420.076447 1282.437134,420.038025 1303.902344,419.993256 
	C1310.776611,419.978943 1311.989990,418.766724 1311.992065,411.852570 
	C1311.999634,387.224457 1311.995239,362.596375 1311.995361,337.968262 
	C1311.995361,336.191040 1311.995239,334.413818 1311.995239,332.129974 
	C1323.669678,332.129974 1334.775513,332.136993 1345.881470,332.127563 
	C1353.555786,332.121033 1354.213135,331.482635 1354.218872,323.933441 
	C1354.229370,310.288177 1354.215698,296.642883 1354.196533,282.531860 
	C1355.345825,282.043213 1356.510620,281.999084 1357.675415,282.001038 
	C1364.117920,282.011871 1365.272217,283.104004 1365.284668,289.512787 
	C1365.315186,305.326416 1365.319702,321.140167 1365.281494,336.953766 
	C1365.266479,343.166229 1364.241577,344.142944 1357.922974,344.158691 
	C1346.473022,344.187195 1335.023071,344.166779 1323.002319,344.166779 
	C1323.002319,346.324432 1323.002441,348.096863 1323.002441,349.869324 
	C1323.002441,374.505371 1323.005371,399.141418 1323.000610,423.777466 
	C1322.999268,431.000061 1321.972656,431.999176 1314.556274,432.000885 
	C1293.249390,432.005798 1271.942627,432.002655 1250.635742,432.002625 
	C1239.502441,432.002625 1239.432251,431.933075 1239.490234,420.537903 
z"/>
<path fill="#1C6A4F" opacity="1.000000" stroke="none" 
	d="
M1322.988037,269.467102 
	C1319.515015,269.928802 1316.050781,269.928802 1312.072144,269.928802 
	C1312.072144,195.488449 1312.072144,121.388107 1312.090820,46.847637 
	C1313.940308,46.411419 1315.779663,46.303215 1317.599854,46.443138 
	C1321.121460,46.713856 1323.097412,48.539970 1323.001221,52.246380 
	C1322.975342,53.244576 1322.999756,54.244053 1322.999756,55.242943 
	C1322.998901,126.497086 1322.997803,197.751221 1322.988037,269.467102 
z"/>
<path fill="#206D52" opacity="1.000000" stroke="none" 
	d="
M687.130981,420.492798 
	C726.861389,419.980988 766.588257,419.927734 806.315063,419.875000 
	C808.291565,419.872406 810.268066,419.874695 813.127930,419.874695 
	C813.127930,400.391724 813.127930,381.202026 813.128296,361.548035 
	C816.593445,361.083771 820.058228,361.083771 823.829712,361.083771 
	C823.829712,384.725922 823.829712,408.072754 823.829712,431.648834 
	C778.380005,431.648834 733.159424,431.648834 687.127319,431.648834 
	C687.127319,428.098633 687.127319,424.525055 687.130981,420.492798 
z"/>
<path fill="#1E6D52" opacity="1.000000" stroke="none" 
	d="
M1067.254639,332.590454 
	C1120.871948,332.162262 1174.470825,332.162262 1228.431274,332.162262 
	C1228.431274,336.266541 1228.431274,339.876709 1228.210449,343.840668 
	C1178.086060,344.187164 1128.182495,344.179688 1078.278809,344.172729 
	C1067.284302,344.171173 1067.148926,344.035370 1067.254639,332.590454 
z"/>
<path fill="#1F6F53" opacity="1.000000" stroke="none" 
	d="
M998.142578,105.562347 
	C995.325989,104.986115 992.669189,103.303543 989.961121,103.216652 
	C979.806152,102.890793 969.634460,103.096771 959.468994,103.075272 
	C957.847534,103.071838 956.226318,102.924278 954.377625,102.832001 
	C954.377625,99.908951 954.377625,97.326126 954.377625,94.267029 
	C965.151306,94.267029 975.743835,94.267029 987.248169,94.267029 
	C987.248169,74.570564 987.248169,55.336323 987.220947,35.645863 
	C990.663696,35.189640 994.133789,35.189640 998.278870,35.189640 
	C998.278870,58.623913 998.278870,81.906258 998.142578,105.562347 
z"/>
<path fill="#1E6D51" opacity="1.000000" stroke="none" 
	d="
M610.247803,340.579407 
	C643.073181,340.128815 675.882935,340.128815 709.132385,340.128815 
	C709.132385,343.094940 709.132385,345.802338 709.132385,349.053192 
	C699.560364,349.053192 690.107422,348.955597 680.660522,349.151398 
	C679.127563,349.183167 677.621460,350.515594 676.040894,351.665161 
	C654.273865,352.083496 632.568848,352.083496 610.232300,352.083496 
	C610.232300,348.203522 610.232300,344.616760 610.247803,340.579407 
z"/>
<path fill="#1E6D52" opacity="1.000000" stroke="none" 
	d="
M813.573181,352.062744 
	C813.496887,349.049255 811.602539,349.011688 809.411194,349.029358 
	C801.440613,349.093658 793.469238,349.066895 785.498230,349.043823 
	C783.880981,349.039124 782.264160,348.900970 780.408264,348.812988 
	C780.408264,345.906433 780.408264,343.331512 780.408264,340.064606 
	C782.324951,340.064606 784.085999,340.064606 785.847046,340.064606 
	C805.608643,340.064575 825.372314,340.220123 845.130188,339.948883 
	C849.736023,339.885712 852.640808,341.003113 854.130493,345.479095 
	C854.804443,347.504150 855.998535,349.356140 856.986328,351.648315 
	C842.687439,352.032837 828.358765,352.055664 813.573181,352.062744 
z"/>
<path fill="#267358" opacity="1.000000" stroke="none" 
	d="
M816.926941,102.607040 
	C815.034180,102.228851 811.986328,102.069466 811.265381,100.692131 
	C800.003418,79.175491 789.041992,57.501534 778.006165,35.499924 
	C781.033081,34.543690 782.705750,35.739227 784.148743,38.585457 
	C794.937927,59.867161 805.927490,81.047302 816.926941,102.607040 
z"/>
<path fill="#206E53" opacity="1.000000" stroke="none" 
	d="
M687.151855,94.561050 
	C694.408752,94.123856 701.651855,94.123856 709.237183,94.123856 
	C709.237183,97.182640 709.237183,99.751991 709.237183,103.005684 
	C702.143677,103.005684 695.098877,103.005684 687.594910,102.978256 
	C687.136475,100.299957 687.137329,97.649101 687.151855,94.561050 
z"/>
<path fill="#206E53" opacity="1.000000" stroke="none" 
	d="
M861.151978,94.561142 
	C868.266785,94.123901 875.367798,94.123901 883.150391,94.123901 
	C883.292358,96.965500 883.425720,99.634499 883.594360,103.010483 
	C876.110107,103.010483 869.080566,103.010483 861.591553,102.982239 
	C861.134094,100.302124 861.136169,97.650253 861.151978,94.561142 
z"/>
<path fill="#236F55" opacity="1.000000" stroke="none" 
	d="
M610.226013,174.561340 
	C614.502014,174.109192 618.765442,174.109192 623.376953,174.109192 
	C623.376953,178.140610 623.376953,181.742401 623.187622,185.702072 
	C618.931030,186.059952 614.863708,186.059952 610.213501,186.059952 
	C610.213501,182.117371 610.213501,178.565430 610.226013,174.561340 
z"/>
<path fill="#1F6C52" opacity="1.000000" stroke="none" 
	d="
M1420.204468,396.412537 
	C1421.048828,396.534576 1421.968506,396.999237 1422.933960,397.786011 
	C1422.079712,397.657166 1421.179810,397.206177 1420.204468,396.412537 
z"/>
<path fill="#1E6C51" opacity="1.000000" stroke="none" 
	d="
M1481.426758,344.710205 
	C1480.967285,344.574524 1480.370117,344.128967 1479.903198,343.305634 
	C1480.451904,343.418671 1480.870483,343.909485 1481.426758,344.710205 
z"/>
<path fill="#1E6D52" opacity="1.000000" stroke="none" 
	d="
M705.110718,268.978149 
	C701.649536,268.978149 698.188354,268.978149 694.426147,268.978149 
	C694.426147,237.365555 694.426147,206.108063 694.426147,174.434464 
	C699.283508,174.434464 704.143188,174.434464 709.591064,174.434464 
	C709.591064,178.006561 709.591064,181.468460 709.257996,185.433197 
	C705.236328,185.314667 705.076599,187.506073 705.083740,190.340485 
	C705.149414,216.552887 705.115601,242.765564 705.110718,268.978149 
z"/>
<path fill="#1E6D52" opacity="1.000000" stroke="none" 
	d="
M965.142700,268.943726 
	C961.684998,268.943726 958.227295,268.943726 954.447998,268.943726 
	C954.447998,237.330612 954.447998,205.999451 954.447998,174.693787 
	C965.710938,172.826157 970.468689,173.788681 969.233887,185.444519 
	C965.223267,185.319229 965.080933,187.528473 965.088806,190.350052 
	C965.161987,216.547791 965.138306,242.745804 965.142700,268.943726 
z"/>
<path fill="#216F54" opacity="1.000000" stroke="none" 
	d="
M882.989319,230.243790 
	C883.209412,233.179123 883.429504,236.114441 883.649536,239.049774 
	C883.281860,239.182999 882.914246,239.316223 882.546570,239.449448 
	C871.474121,217.944992 860.401672,196.440536 849.054504,174.402466 
	C860.709961,174.402466 871.826294,174.402466 883.335876,174.402466 
	C883.335876,178.099091 883.335876,181.708206 882.694580,185.678207 
	C874.952271,186.039108 867.851257,186.039108 859.814148,186.039108 
	C867.778564,201.230499 875.383911,215.737152 882.989319,230.243790 
z"/>
<path fill="#1F6F53" opacity="1.000000" stroke="none" 
	d="
M791.181152,268.981140 
	C787.719360,268.981140 784.257629,268.981140 780.456238,268.981140 
	C780.456238,247.152985 780.456238,225.623520 780.456238,204.094055 
	C780.723267,203.936386 780.990295,203.778717 781.257385,203.621048 
	C784.522400,210.506088 787.787476,217.391129 791.128906,225.115723 
	C791.197266,240.297241 791.189209,254.639191 791.181152,268.981140 
z"/>
<path fill="#FDFFFE" opacity="1.000000" stroke="none" 
	d="
M791.637512,268.986023 
	C791.189209,254.639191 791.197266,240.297241 791.235779,225.481293 
	C793.802307,229.458740 796.467529,233.842377 798.847900,238.375580 
	C804.008606,248.203430 809.023682,258.107788 814.617432,268.990936 
	C806.492554,268.990936 799.293213,268.990936 791.637512,268.986023 
z"/>
<path fill="#FBFDFC" opacity="1.000000" stroke="none" 
	d="
M882.996826,229.756516 
	C875.383911,215.737152 867.778564,201.230499 859.814148,186.039108 
	C867.851257,186.039108 874.952271,186.039108 882.522217,186.042267 
	C882.995544,200.453369 882.999939,214.861313 882.996826,229.756516 
z"/>
<path fill="#F1F6F4" opacity="1.000000" stroke="none" 
	d="
M705.533325,268.995544 
	C705.115601,242.765564 705.149414,216.552887 705.083740,190.340485 
	C705.076599,187.506073 705.236328,185.314667 709.326599,185.879227 
	C709.757935,212.241974 709.757751,238.661667 709.859497,265.080963 
	C709.870667,267.976105 709.200806,269.625031 705.533325,268.995544 
z"/>
<path fill="#F0F5F4" opacity="1.000000" stroke="none" 
	d="
M965.433472,268.774109 
	C965.138306,242.745804 965.161987,216.547791 965.088806,190.350052 
	C965.080933,187.528473 965.223267,185.319229 969.315002,185.856750 
	C969.743042,210.928223 969.886963,236.069946 969.624512,261.207428 
	C969.598572,263.686401 967.083740,266.139404 965.433472,268.774109 
z"/>
<path fill="#FFFFFF" opacity="1.000000" stroke="none" 
	d="
M232.114304,118.143555 
	C238.749161,124.676186 240.749649,133.307358 242.364441,141.918213 
	C245.286179,157.498413 244.926071,173.088211 239.731796,188.164688 
	C232.559967,208.980957 217.609650,221.385818 195.903107,223.769073 
	C180.603134,225.448944 165.035065,224.745346 149.584747,224.974564 
	C141.099869,225.100449 132.610947,224.954376 123.682915,224.484085 
	C123.799355,185.497894 124.356728,146.958527 124.914421,108.396858 
	C125.811729,108.209839 126.276726,108.028046 126.741653,108.028206 
	C150.367004,108.036667 173.995605,107.835030 197.616364,108.175674 
	C209.895615,108.352745 221.654953,111.225670 232.114304,118.143555 
z"/>
<path fill="#1F6C51" opacity="1.000000" stroke="none" 
	d="
M232.278580,117.912521 
	C221.654953,111.225670 209.895615,108.352745 197.616364,108.175674 
	C173.995605,107.835030 150.367004,108.036667 126.741653,108.028206 
	C126.276726,108.028046 125.811729,108.209839 124.914421,108.396858 
	C124.356728,146.958527 123.799355,185.497894 123.227478,224.489258 
	C119.738586,224.941269 116.264191,224.941269 112.072853,224.941269 
	C112.645866,181.980637 113.215042,139.307770 113.787346,96.400253 
	C115.363548,96.231171 116.475456,96.008278 117.587448,96.007889 
	C140.230331,95.999977 162.875824,95.813927 185.515152,96.103539 
	C199.937378,96.288025 213.624451,99.521309 224.952316,109.177864 
	C227.797745,111.603485 229.964310,114.825478 232.278580,117.912521 
z"/>
<path fill="#FEFEFE" opacity="1.000000" stroke="none" 
	d="
M1229.180786,128.775421 
	C1229.403076,133.030304 1229.866333,137.288666 1229.805054,141.539474 
	C1229.558228,158.676987 1228.969849,175.810852 1228.843994,192.948532 
	C1228.670410,216.599091 1228.800415,240.251907 1228.800415,263.903748 
	C1228.800415,265.698914 1228.800415,267.494080 1228.800415,269.936127 
	C1199.555176,269.936127 1170.811768,269.936127 1141.708740,269.623230 
	C1170.626343,222.465332 1199.903564,175.620377 1229.180786,128.775421 
z"/>
<path fill="#1E6C51" opacity="1.000000" stroke="none" 
	d="
M1229.287964,128.415131 
	C1199.903564,175.620377 1170.626343,222.465332 1141.249268,269.624451 
	C1135.234009,269.938629 1129.318726,269.938629 1122.442383,269.938629 
	C1158.635498,211.993851 1194.352661,154.811035 1230.069824,97.628212 
	C1230.543823,97.691589 1231.017822,97.754959 1231.491821,97.818336 
	C1230.792847,107.897171 1230.093994,117.976006 1229.287964,128.415131 
z"/>
</svg>