<svg version="1.1" id="Layer_1" xmlns="http://www.w3.org/2000/svg" xmlns:xlink="http://www.w3.org/1999/xlink" x="0px" y="0px"
	 width="100%" viewBox="0 0 1731 461" enable-background="new 0 0 1731 461" xml:space="preserve">
<path fill="#FFFFFF" opacity="1.000000" stroke="none" 
	d="
M1146.000000,462.000000 
	C764.043457,462.000000 382.586853,462.000000 1.065148,462.000000 
	C1.065148,308.394287 1.065148,154.788528 1.065148,1.091389 
	C578.000000,1.091389 1155.000000,1.091389 1731.966187,1.091389 
	C1731.966187,154.746735 1731.966187,308.373383 1731.966187,462.000000 
	C1536.788208,462.000000 1341.644165,462.000000 1146.000000,462.000000 
M772.261292,25.021355 
	C770.350891,24.368498 768.442810,23.155071 766.529663,23.146902 
	C738.034363,23.025211 709.538391,23.057875 681.042542,23.076487 
	C679.463013,23.077518 677.883545,23.273930 676.491028,23.366917 
	C676.491028,47.243790 676.491028,70.483238 676.491028,94.244400 
	C687.493958,94.244400 698.089172,94.244400 708.825745,94.244400 
	C708.825745,97.346153 708.825745,99.916283 708.825745,103.208939 
	C672.146179,103.208939 635.788147,103.208939 599.516541,103.208939 
	C599.516541,127.176445 599.516541,150.413132 599.516541,174.192322 
	C607.498657,174.192322 615.086121,174.192322 622.842529,174.192322 
	C622.842529,205.976929 622.842529,237.212967 622.842529,269.185638 
	C614.852051,269.185638 607.143982,269.185638 599.500000,269.185638 
	C599.500000,293.162537 599.500000,316.399872 599.500000,340.175781 
	C636.128540,340.175781 672.375610,340.175781 708.852295,340.175781 
	C708.852295,343.290955 708.852295,345.860016 708.852295,349.138885 
	C697.858948,349.138885 687.146423,349.138885 676.473877,349.138885 
	C676.473877,373.077515 676.473877,396.302246 676.473877,419.574219 
	C722.109375,419.574219 767.344788,419.574219 812.727905,419.574219 
	C812.727905,395.997040 812.727905,372.772186 812.727905,348.984100 
	C801.818237,348.984100 791.241089,348.984100 780.547852,348.984100 
	C780.547852,345.721619 780.547852,343.036560 780.547852,340.057251 
	C803.478455,340.057251 825.962463,339.984497 848.443359,340.215210 
	C850.000366,340.231201 852.150879,342.183044 852.986328,343.778687 
	C865.574341,367.821716 878.048706,391.925079 890.365479,416.108185 
	C891.894653,419.110596 893.658386,420.030060 896.916504,420.000061 
	C914.245850,419.840729 931.577393,419.931396 948.908203,419.914581 
	C950.509766,419.913055 952.111206,419.764679 954.279175,419.656158 
	C954.279175,392.914001 954.279175,366.681915 954.279175,340.052063 
	C966.844971,340.052063 978.820679,340.184875 990.788208,339.932068 
	C992.993652,339.885498 995.706848,338.830597 997.268860,337.303345 
	C1010.729126,324.143555 1024.042358,310.830475 1037.206421,297.374329 
	C1038.738037,295.808868 1039.877808,293.099060 1039.885010,290.915527 
	C1040.036743,244.589493 1040.031616,198.262741 1039.895630,151.936615 
	C1039.889526,149.887070 1038.879150,147.328247 1037.452271,145.874847 
	C1024.144165,132.319366 1010.697021,118.898247 997.117737,105.614441 
	C995.657410,104.185890 993.118408,103.207489 991.053284,103.159439 
	C980.560486,102.915253 970.058899,103.059441 959.560547,103.033859 
	C957.814270,103.029610 956.068481,102.858803 954.517578,102.775444 
	C954.517578,99.537193 954.517578,96.967575 954.517578,93.867348 
	C965.520081,93.867348 976.105835,93.867348 986.807495,93.867348 
	C986.807495,70.089272 986.807495,46.859623 986.807495,23.507366 
	C941.109192,23.507366 895.753479,23.507366 850.465942,23.507366 
	C850.465942,47.187191 850.465942,70.426346 850.465942,94.197052 
	C861.437683,94.197052 872.029480,94.197052 882.828369,94.197052 
	C882.828369,97.306297 882.828369,99.875847 882.828369,102.444191 
	C882.098022,102.688896 881.639893,102.976082 881.181274,102.976875 
	C859.184875,103.014885 837.188049,103.078033 815.192749,102.925949 
	C813.805603,102.916359 811.811768,101.528618 811.140747,100.240128 
	C798.224426,75.437576 785.463806,50.553925 772.261292,25.021355 
M1493.653687,353.931580 
	C1481.961792,348.251648 1473.562866,339.334900 1467.860107,327.748077 
	C1460.488037,312.769440 1458.166138,296.677765 1458.079468,280.276184 
	C1457.870728,240.777924 1458.015137,201.277740 1458.040405,161.778336 
	C1458.046509,152.278702 1458.056274,142.777664 1458.214844,133.279785 
	C1458.723511,102.813332 1459.346924,72.348732 1459.812134,41.881680 
	C1459.890503,36.738304 1457.927612,34.954090 1452.886719,34.947842 
	C1428.220459,34.917271 1403.554077,34.915077 1378.887817,34.949898 
	C1373.570068,34.957405 1371.996460,36.480656 1372.080200,41.810329 
	C1372.221313,50.794849 1372.650024,59.774605 1372.820923,68.758965 
	C1373.207275,89.073730 1373.640503,109.388985 1373.813721,129.706100 
	C1374.021362,154.037415 1373.697510,178.375626 1374.109253,202.702286 
	C1374.712036,238.312073 1371.671509,274.003357 1376.061523,309.523895 
	C1378.134644,326.298401 1382.796753,342.437195 1390.473999,357.547791 
	C1407.646729,391.347443 1435.806396,411.314178 1471.784546,420.905518 
	C1497.242798,427.692383 1523.188354,429.178192 1549.464355,427.246460 
	C1567.840576,425.895477 1585.718750,422.689392 1602.943115,416.143951 
	C1631.525635,405.282196 1653.205933,386.648010 1667.050171,359.143188 
	C1678.823486,335.752594 1683.427368,310.649109 1683.814209,284.843964 
	C1684.373779,247.519363 1683.970703,210.180527 1684.007812,172.847809 
	C1684.020020,160.681564 1684.016357,148.513718 1684.207520,136.349564 
	C1684.699341,105.049622 1685.330078,73.751862 1685.820068,42.451897 
	C1685.910522,36.664139 1684.091675,34.948498 1678.454712,34.942642 
	C1656.788330,34.920135 1635.122070,34.919682 1613.455688,34.943451 
	C1608.036621,34.949394 1606.177124,36.651688 1606.191284,42.039192 
	C1606.205322,47.355995 1606.735229,52.669937 1606.809570,57.988331 
	C1607.198486,85.803032 1607.692139,113.617966 1607.815308,141.434296 
	C1608.014038,186.266144 1608.141235,231.100342 1607.858643,275.930786 
	C1607.793091,286.339935 1606.879395,296.931091 1604.752686,307.103333 
	C1599.352173,332.935516 1584.608887,350.804108 1558.394165,358.067902 
	C1546.659668,361.319366 1534.723145,361.461700 1522.730957,361.048798 
	C1512.828613,360.707794 1503.274048,358.707153 1493.653687,353.931580 
M316.269409,108.242813 
	C306.336884,81.554955 287.867798,62.911148 262.308929,50.928280 
	C237.723801,39.401943 211.533661,35.300369 184.734116,35.113396 
	C135.247208,34.768143 85.756248,35.001396 36.266975,35.004559 
	C29.631111,35.004982 28.749550,35.852741 28.835197,42.543201 
	C29.137886,66.187576 29.495586,89.831253 29.833956,113.475166 
	C30.174709,137.285706 30.784903,161.096115 30.794907,184.906784 
	C30.809113,218.715210 30.438293,252.524323 30.129356,286.332214 
	C29.756464,327.139404 29.276213,367.945618 28.842409,408.752258 
	C28.835323,409.418732 28.854967,410.086792 28.816639,410.751465 
	C28.362780,418.621948 29.495358,419.877594 37.204166,419.881042 
	C60.032551,419.891235 82.860947,419.890503 105.689331,419.881195 
	C112.988937,419.878235 114.194397,418.734009 114.107430,411.565491 
	C113.822586,388.087280 113.431709,364.610260 113.187164,341.131714 
	C113.010147,324.136688 112.991333,307.139923 112.935928,290.143829 
	C112.931808,288.880493 113.201645,287.616211 113.383835,286.000000 
	C115.679543,286.000000 117.653511,286.020660 119.626938,285.996887 
	C146.264313,285.676300 172.916473,285.782654 199.533661,284.869904 
	C216.878052,284.275146 233.751205,280.265320 249.953690,273.857544 
	C279.780579,262.061584 302.221344,242.375305 314.767883,212.410477 
	C320.460907,198.813843 323.191223,184.551270 324.295898,169.798386 
	C325.860199,148.906631 323.453064,128.689209 316.269409,108.242813 
M1056.145142,266.019775 
	C1056.135132,285.179230 1056.118530,304.338715 1056.118286,323.498169 
	C1056.118286,330.937256 1057.298218,332.088379 1064.880249,332.088867 
	C1117.194458,332.092285 1169.508545,332.090698 1221.822754,332.090729 
	C1223.764038,332.090729 1225.705322,332.090729 1228.200562,332.090729 
	C1228.200562,334.563599 1228.200562,336.356659 1228.200562,338.149689 
	C1228.200562,361.807678 1228.199951,385.465668 1228.200684,409.123657 
	C1228.201050,419.352570 1228.831787,419.999878 1238.781250,419.999939 
	C1259.940186,420.000092 1281.098999,420.000397 1302.257935,419.999756 
	C1311.377441,419.999481 1311.999390,419.393463 1311.999634,410.501343 
	C1312.000488,386.343536 1312.000000,362.185699 1312.000000,338.027893 
	C1312.000000,336.245667 1312.000000,334.463470 1312.000000,332.090729 
	C1314.360229,332.090729 1316.142578,332.090851 1317.924805,332.090698 
	C1327.921143,332.089813 1337.918701,331.998871 1347.913330,332.128754 
	C1352.389404,332.186951 1354.207886,330.271576 1354.181030,325.830109 
	C1354.081177,309.336761 1354.070557,292.841980 1354.185303,276.348816 
	C1354.218750,271.549896 1352.032715,269.882935 1347.459473,269.952972 
	C1337.465454,270.106079 1327.467529,270.011993 1317.471191,269.988586 
	C1315.721680,269.984497 1313.972412,269.832642 1312.000000,269.738373 
	C1312.000000,267.123505 1312.000000,265.132721 1312.000000,263.141968 
	C1312.000000,189.835495 1312.000610,116.529030 1311.999146,43.222565 
	C1311.999023,35.527760 1310.690796,34.176292 1303.091553,34.173393 
	C1272.436157,34.161686 1241.780151,34.263519 1211.125610,34.094002 
	C1204.444336,34.057056 1200.059937,36.538116 1196.423950,42.230923 
	C1153.689941,109.137985 1110.715210,175.891312 1067.986694,242.801758 
	C1063.473633,249.868881 1060.121826,257.677551 1056.145142,266.019775 
M347.109283,214.499771 
	C346.799469,242.149078 346.485504,269.798370 346.180786,297.447693 
	C345.754883,336.096771 345.367126,374.746307 344.872864,413.394501 
	C344.813751,418.016724 346.549377,420.057800 351.313721,420.054047 
	C428.980133,419.992767 506.646606,420.019714 584.313049,419.993103 
	C589.762390,419.991241 591.043396,418.624878 591.054626,413.138275 
	C591.086548,397.471710 591.072144,381.805084 591.064087,366.138458 
	C591.060181,358.517517 590.471680,357.936127 582.754883,357.935455 
	C533.921692,357.931366 485.088470,357.933197 436.255280,357.933105 
	C434.320709,357.933075 432.386108,357.933075 429.163269,357.933075 
	C429.163269,345.117889 429.278625,332.998444 429.137451,320.882019 
	C428.898804,300.398346 428.235077,279.916656 428.225800,259.433929 
	C428.211304,227.451172 428.545837,195.467834 428.820618,163.485489 
	C429.167023,123.169006 429.615112,82.853409 429.984894,42.537117 
	C430.041870,36.325130 428.648285,34.998402 422.314789,34.993523 
	C398.981537,34.975548 375.648254,34.976421 352.315002,34.993435 
	C345.765656,34.998211 344.837433,35.908596 344.933258,42.603409 
	C345.190643,60.586994 345.546936,78.569145 345.821014,96.552513 
	C346.186493,120.535004 346.558533,144.517563 346.836639,168.501144 
	C347.010529,183.499710 347.016602,198.500229 347.109283,214.499771 
z"/>
<path fill="#7BF6CC" opacity="1.000000" stroke="none" 
	d="
M772.466187,25.354183 
	C785.463806,50.553925 798.224426,75.437576 811.140747,100.240128 
	C811.811768,101.528618 813.805603,102.916359 815.192749,102.925949 
	C837.188049,103.078033 859.184875,103.014885 881.181274,102.976875 
	C881.639893,102.976082 882.098022,102.688896 882.828369,102.444191 
	C882.828369,99.875847 882.828369,97.306297 882.828369,94.197052 
	C872.029480,94.197052 861.437683,94.197052 850.465942,94.197052 
	C850.465942,70.426346 850.465942,47.187191 850.465942,23.507366 
	C895.753479,23.507366 941.109192,23.507366 986.807495,23.507366 
	C986.807495,46.859623 986.807495,70.089272 986.807495,93.867348 
	C976.105835,93.867348 965.520081,93.867348 954.517578,93.867348 
	C954.517578,96.967575 954.517578,99.537193 954.517578,102.775444 
	C956.068481,102.858803 957.814270,103.029610 959.560547,103.033859 
	C970.058899,103.059441 980.560486,102.915253 991.053284,103.159439 
	C993.118408,103.207489 995.657410,104.185890 997.117737,105.614441 
	C1010.697021,118.898247 1024.144165,132.319366 1037.452271,145.874847 
	C1038.879150,147.328247 1039.889526,149.887070 1039.895630,151.936615 
	C1040.031616,198.262741 1040.036743,244.589493 1039.885010,290.915527 
	C1039.877808,293.099060 1038.738037,295.808868 1037.206421,297.374329 
	C1024.042358,310.830475 1010.729126,324.143555 997.268860,337.303345 
	C995.706848,338.830597 992.993652,339.885498 990.788208,339.932068 
	C978.820679,340.184875 966.844971,340.052063 954.279175,340.052063 
	C954.279175,366.681915 954.279175,392.914001 954.279175,419.656158 
	C952.111206,419.764679 950.509766,419.913055 948.908203,419.914581 
	C931.577393,419.931396 914.245850,419.840729 896.916504,420.000061 
	C893.658386,420.030060 891.894653,419.110596 890.365479,416.108185 
	C878.048706,391.925079 865.574341,367.821716 852.986328,343.778687 
	C852.150879,342.183044 850.000366,340.231201 848.443359,340.215210 
	C825.962463,339.984497 803.478455,340.057251 780.547852,340.057251 
	C780.547852,343.036560 780.547852,345.721619 780.547852,348.984100 
	C791.241089,348.984100 801.818237,348.984100 812.727905,348.984100 
	C812.727905,372.772186 812.727905,395.997040 812.727905,419.574219 
	C767.344788,419.574219 722.109375,419.574219 676.473877,419.574219 
	C676.473877,396.302246 676.473877,373.077515 676.473877,349.138885 
	C687.146423,349.138885 697.858948,349.138885 708.852295,349.138885 
	C708.852295,345.860016 708.852295,343.290955 708.852295,340.175781 
	C672.375610,340.175781 636.128540,340.175781 599.500000,340.175781 
	C599.500000,316.399872 599.500000,293.162537 599.500000,269.185638 
	C607.143982,269.185638 614.852051,269.185638 622.842529,269.185638 
	C622.842529,237.212967 622.842529,205.976929 622.842529,174.192322 
	C615.086121,174.192322 607.498657,174.192322 599.516541,174.192322 
	C599.516541,150.413132 599.516541,127.176445 599.516541,103.208939 
	C635.788147,103.208939 672.146179,103.208939 708.825745,103.208939 
	C708.825745,99.916283 708.825745,97.346153 708.825745,94.244400 
	C698.089172,94.244400 687.493958,94.244400 676.491028,94.244400 
	C676.491028,70.483238 676.491028,47.243790 676.491028,23.366917 
	C677.883545,23.273930 679.463013,23.077518 681.042542,23.076487 
	C709.538391,23.057875 738.034363,23.025211 766.529663,23.146902 
	C768.442810,23.155071 770.350891,24.368498 772.466187,25.354183 
M709.159485,231.500000 
	C709.159485,212.456314 709.159485,193.412643 709.159485,174.385330 
	C703.684265,174.385330 699.117310,174.385330 694.507202,174.385330 
	C694.507202,206.082809 694.507202,237.413574 694.507202,268.700134 
	C699.518433,268.700134 704.096497,268.700134 709.159668,268.700134 
	C709.159668,256.392792 709.159668,244.446396 709.159485,231.500000 
M954.084106,244.500000 
	C954.084106,252.580841 954.084106,260.661682 954.084106,269.060974 
	C957.710205,269.060974 960.531311,269.186432 963.336670,269.030121 
	C967.081421,268.821442 969.111389,266.648438 969.117004,262.935120 
	C969.158386,235.323532 969.156616,207.711823 969.119507,180.100235 
	C969.114441,176.367310 967.104736,174.217087 963.327881,174.053329 
	C960.402832,173.926544 957.467896,174.028030 954.084290,174.028030 
	C954.084290,197.663391 954.084290,220.581696 954.084106,244.500000 
M780.090454,239.500000 
	C780.090454,249.241592 780.090454,258.983185 780.090454,268.758057 
	C791.800842,268.758057 802.686035,268.758057 814.519958,268.758057 
	C803.157227,246.629318 792.120911,225.136169 781.084534,203.643021 
	C780.753235,203.789474 780.421936,203.935913 780.090637,204.082367 
	C780.090637,215.554901 780.090637,227.027451 780.090454,239.500000 
M875.205566,225.311722 
	C877.534607,229.697678 879.863586,234.083633 882.690552,239.407303 
	C882.690552,216.800629 882.690552,195.588776 882.690552,174.407776 
	C871.410950,174.407776 860.579834,174.407776 849.127380,174.407776 
	C857.907837,191.523087 866.401306,208.079086 875.205566,225.311722 
z"/>
<path fill="#7BF6CC" opacity="1.000000" stroke="none" 
	d="
M1493.995605,354.084412 
	C1503.274048,358.707153 1512.828613,360.707794 1522.730957,361.048798 
	C1534.723145,361.461700 1546.659668,361.319366 1558.394165,358.067902 
	C1584.608887,350.804108 1599.352173,332.935516 1604.752686,307.103333 
	C1606.879395,296.931091 1607.793091,286.339935 1607.858643,275.930786 
	C1608.141235,231.100342 1608.014038,186.266144 1607.815308,141.434296 
	C1607.692139,113.617966 1607.198486,85.803032 1606.809570,57.988331 
	C1606.735229,52.669937 1606.205322,47.355995 1606.191284,42.039192 
	C1606.177124,36.651688 1608.036621,34.949394 1613.455688,34.943451 
	C1635.122070,34.919682 1656.788330,34.920135 1678.454712,34.942642 
	C1684.091675,34.948498 1685.910522,36.664139 1685.820068,42.451897 
	C1685.330078,73.751862 1684.699341,105.049622 1684.207520,136.349564 
	C1684.016357,148.513718 1684.020020,160.681564 1684.007812,172.847809 
	C1683.970703,210.180527 1684.373779,247.519363 1683.814209,284.843964 
	C1683.427368,310.649109 1678.823486,335.752594 1667.050171,359.143188 
	C1653.205933,386.648010 1631.525635,405.282196 1602.943115,416.143951 
	C1585.718750,422.689392 1567.840576,425.895477 1549.464355,427.246460 
	C1523.188354,429.178192 1497.242798,427.692383 1471.784546,420.905518 
	C1435.806396,411.314178 1407.646729,391.347443 1390.473999,357.547791 
	C1382.796753,342.437195 1378.134644,326.298401 1376.061523,309.523895 
	C1371.671509,274.003357 1374.712036,238.312073 1374.109253,202.702286 
	C1373.697510,178.375626 1374.021362,154.037415 1373.813721,129.706100 
	C1373.640503,109.388985 1373.207275,89.073730 1372.820923,68.758965 
	C1372.650024,59.774605 1372.221313,50.794849 1372.080200,41.810329 
	C1371.996460,36.480656 1373.570068,34.957405 1378.887817,34.949898 
	C1403.554077,34.915077 1428.220459,34.917271 1452.886719,34.947842 
	C1457.927612,34.954090 1459.890503,36.738304 1459.812134,41.881680 
	C1459.346924,72.348732 1458.723511,102.813332 1458.214844,133.279785 
	C1458.056274,142.777664 1458.046509,152.278702 1458.040405,161.778336 
	C1458.015137,201.277740 1457.870728,240.777924 1458.079468,280.276184 
	C1458.166138,296.677765 1460.488037,312.769440 1467.860107,327.748077 
	C1473.562866,339.334900 1481.961792,348.251648 1493.995605,354.084412 
z"/>
<path fill="#7BF6CC" opacity="1.000000" stroke="none" 
	d="
M316.431091,108.595932 
	C323.453064,128.689209 325.860199,148.906631 324.295898,169.798386 
	C323.191223,184.551270 320.460907,198.813843 314.767883,212.410477 
	C302.221344,242.375305 279.780579,262.061584 249.953690,273.857544 
	C233.751205,280.265320 216.878052,284.275146 199.533661,284.869904 
	C172.916473,285.782654 146.264313,285.676300 119.626938,285.996887 
	C117.653511,286.020660 115.679543,286.000000 113.383835,286.000000 
	C113.201645,287.616211 112.931808,288.880493 112.935928,290.143829 
	C112.991333,307.139923 113.010147,324.136688 113.187164,341.131714 
	C113.431709,364.610260 113.822586,388.087280 114.107430,411.565491 
	C114.194397,418.734009 112.988937,419.878235 105.689331,419.881195 
	C82.860947,419.890503 60.032551,419.891235 37.204166,419.881042 
	C29.495358,419.877594 28.362780,418.621948 28.816639,410.751465 
	C28.854967,410.086792 28.835323,409.418732 28.842409,408.752258 
	C29.276213,367.945618 29.756464,327.139404 30.129356,286.332214 
	C30.438293,252.524323 30.809113,218.715210 30.794907,184.906784 
	C30.784903,161.096115 30.174709,137.285706 29.833956,113.475166 
	C29.495586,89.831253 29.137886,66.187576 28.835197,42.543201 
	C28.749550,35.852741 29.631111,35.004982 36.266975,35.004559 
	C85.756248,35.001396 135.247208,34.768143 184.734116,35.113396 
	C211.533661,35.300369 237.723801,39.401943 262.308929,50.928280 
	C287.867798,62.911148 306.336884,81.554955 316.431091,108.595932 
M166.500000,225.000092 
	C176.465897,224.666519 186.554398,225.201981 196.371933,223.816818 
	C216.257874,221.011154 231.047028,210.531631 238.371887,191.352722 
	C246.324478,170.530106 246.355194,149.287643 238.407532,128.554489 
	C235.830124,121.830841 231.094681,115.416626 225.913849,110.315865 
	C214.905930,99.478119 200.477371,96.352570 185.571930,96.113419 
	C163.588806,95.760719 141.593475,96.186165 119.609253,95.869629 
	C114.369362,95.794182 112.860970,97.876045 112.996658,102.444328 
	C113.173599,108.401405 113.528046,114.362480 113.441574,120.316536 
	C113.028618,148.749985 112.473213,177.181335 112.014641,205.614166 
	C111.913414,211.890808 111.999809,218.170486 111.999809,225.000076 
	C130.280655,225.000076 147.890320,225.000076 166.500000,225.000092 
z"/>
<path fill="#7BF6CC" opacity="1.000000" stroke="none" 
	d="
M1056.188232,265.580994 
	C1060.121826,257.677551 1063.473633,249.868881 1067.986694,242.801758 
	C1110.715210,175.891312 1153.689941,109.137985 1196.423950,42.230923 
	C1200.059937,36.538116 1204.444336,34.057056 1211.125610,34.094002 
	C1241.780151,34.263519 1272.436157,34.161686 1303.091553,34.173393 
	C1310.690796,34.176292 1311.999023,35.527760 1311.999146,43.222565 
	C1312.000610,116.529030 1312.000000,189.835495 1312.000000,263.141968 
	C1312.000000,265.132721 1312.000000,267.123505 1312.000000,269.738373 
	C1313.972412,269.832642 1315.721680,269.984497 1317.471191,269.988586 
	C1327.467529,270.011993 1337.465454,270.106079 1347.459473,269.952972 
	C1352.032715,269.882935 1354.218750,271.549896 1354.185303,276.348816 
	C1354.070557,292.841980 1354.081177,309.336761 1354.181030,325.830109 
	C1354.207886,330.271576 1352.389404,332.186951 1347.913330,332.128754 
	C1337.918701,331.998871 1327.921143,332.089813 1317.924805,332.090698 
	C1316.142578,332.090851 1314.360229,332.090729 1312.000000,332.090729 
	C1312.000000,334.463470 1312.000000,336.245667 1312.000000,338.027893 
	C1312.000000,362.185699 1312.000488,386.343536 1311.999634,410.501343 
	C1311.999390,419.393463 1311.377441,419.999481 1302.257935,419.999756 
	C1281.098999,420.000397 1259.940186,420.000092 1238.781250,419.999939 
	C1228.831787,419.999878 1228.201050,419.352570 1228.200684,409.123657 
	C1228.199951,385.465668 1228.200562,361.807678 1228.200562,338.149689 
	C1228.200562,336.356659 1228.200562,334.563599 1228.200562,332.090729 
	C1225.705322,332.090729 1223.764038,332.090729 1221.822754,332.090729 
	C1169.508545,332.090698 1117.194458,332.092285 1064.880249,332.088867 
	C1057.298218,332.088379 1056.118286,330.937256 1056.118286,323.498169 
	C1056.118530,304.338715 1056.135132,285.179230 1056.188232,265.580994 
M1225.127197,105.625732 
	C1191.060547,160.143478 1156.993896,214.661240 1122.606079,269.692993 
	C1158.455200,269.692993 1193.331177,269.692993 1228.211304,269.692993 
	C1228.923340,212.252838 1229.631592,155.118515 1230.345581,97.531616 
	C1228.662354,100.125732 1227.080444,102.563644 1225.127197,105.625732 
z"/>
<path fill="#7BF6CC" opacity="1.000000" stroke="none" 
	d="
M347.103638,213.999817 
	C347.016602,198.500229 347.010529,183.499710 346.836639,168.501144 
	C346.558533,144.517563 346.186493,120.535004 345.821014,96.552513 
	C345.546936,78.569145 345.190643,60.586994 344.933258,42.603409 
	C344.837433,35.908596 345.765656,34.998211 352.315002,34.993435 
	C375.648254,34.976421 398.981537,34.975548 422.314789,34.993523 
	C428.648285,34.998402 430.041870,36.325130 429.984894,42.537117 
	C429.615112,82.853409 429.167023,123.169006 428.820618,163.485489 
	C428.545837,195.467834 428.211304,227.451172 428.225800,259.433929 
	C428.235077,279.916656 428.898804,300.398346 429.137451,320.882019 
	C429.278625,332.998444 429.163269,345.117889 429.163269,357.933075 
	C432.386108,357.933075 434.320709,357.933075 436.255280,357.933105 
	C485.088470,357.933197 533.921692,357.931366 582.754883,357.935455 
	C590.471680,357.936127 591.060181,358.517517 591.064087,366.138458 
	C591.072144,381.805084 591.086548,397.471710 591.054626,413.138275 
	C591.043396,418.624878 589.762390,419.991241 584.313049,419.993103 
	C506.646606,420.019714 428.980133,419.992767 351.313721,420.054047 
	C346.549377,420.057800 344.813751,418.016724 344.872864,413.394501 
	C345.367126,374.746307 345.754883,336.096771 346.180786,297.447693 
	C346.485504,269.798370 346.799469,242.149078 347.103638,213.999817 
z"/>
<path fill="#FDFFFE" opacity="1.000000" stroke="none" 
	d="
M709.159546,232.000000 
	C709.159668,244.446396 709.159668,256.392792 709.159668,268.700134 
	C704.096497,268.700134 699.518433,268.700134 694.507202,268.700134 
	C694.507202,237.413574 694.507202,206.082809 694.507202,174.385330 
	C699.117310,174.385330 703.684265,174.385330 709.159485,174.385330 
	C709.159485,193.412643 709.159485,212.456314 709.159546,232.000000 
z"/>
<path fill="#FDFFFE" opacity="1.000000" stroke="none" 
	d="
M954.084229,244.000000 
	C954.084290,220.581696 954.084290,197.663391 954.084290,174.028030 
	C957.467896,174.028030 960.402832,173.926544 963.327881,174.053329 
	C967.104736,174.217087 969.114441,176.367310 969.119507,180.100235 
	C969.156616,207.711823 969.158386,235.323532 969.117004,262.935120 
	C969.111389,266.648438 967.081421,268.821442 963.336670,269.030121 
	C960.531311,269.186432 957.710205,269.060974 954.084106,269.060974 
	C954.084106,260.661682 954.084106,252.580841 954.084229,244.000000 
z"/>
<path fill="#FCFFFE" opacity="1.000000" stroke="none" 
	d="
M780.090576,239.000000 
	C780.090637,227.027451 780.090637,215.554901 780.090637,204.082367 
	C780.421936,203.935913 780.753235,203.789474 781.084534,203.643021 
	C792.120911,225.136169 803.157227,246.629318 814.519958,268.758057 
	C802.686035,268.758057 791.800842,268.758057 780.090454,268.758057 
	C780.090454,258.983185 780.090454,249.241592 780.090576,239.000000 
z"/>
<path fill="#FEFFFE" opacity="1.000000" stroke="none" 
	d="
M875.050171,224.973404 
	C866.401306,208.079086 857.907837,191.523087 849.127380,174.407776 
	C860.579834,174.407776 871.410950,174.407776 882.690552,174.407776 
	C882.690552,195.588776 882.690552,216.800629 882.690552,239.407303 
	C879.863586,234.083633 877.534607,229.697678 875.050171,224.973404 
z"/>
<path fill="#FFFFFF" opacity="1.000000" stroke="none" 
	d="
M166.000000,225.000092 
	C147.890320,225.000076 130.280655,225.000076 111.999809,225.000076 
	C111.999809,218.170486 111.913414,211.890808 112.014641,205.614166 
	C112.473213,177.181335 113.028618,148.749985 113.441574,120.316536 
	C113.528046,114.362480 113.173599,108.401405 112.996658,102.444328 
	C112.860970,97.876045 114.369362,95.794182 119.609253,95.869629 
	C141.593475,96.186165 163.588806,95.760719 185.571930,96.113419 
	C200.477371,96.352570 214.905930,99.478119 225.913849,110.315865 
	C231.094681,115.416626 235.830124,121.830841 238.407532,128.554489 
	C246.355194,149.287643 246.324478,170.530106 238.371887,191.352722 
	C231.047028,210.531631 216.257874,221.011154 196.371933,223.816818 
	C186.554398,225.201981 176.465897,224.666519 166.000000,225.000092 
z"/>
<path fill="#FEFFFF" opacity="1.000000" stroke="none" 
	d="
M1225.312988,105.313644 
	C1227.080444,102.563644 1228.662354,100.125732 1230.345581,97.531616 
	C1229.631592,155.118515 1228.923340,212.252838 1228.211304,269.692993 
	C1193.331177,269.692993 1158.455200,269.692993 1122.606079,269.692993 
	C1156.993896,214.661240 1191.060547,160.143478 1225.312988,105.313644 
z"/>
</svg>